<svg xmlns="http://www.w3.org/2000/svg" viewBox="0 0 213.01 475.52"><defs><style>.cls-1{fill:#fff;}.cls-2{fill:#dada7a;}.cls-3,.cls-5,.cls-6{fill:none;stroke:#010101;stroke-width:2px;}.cls-3,.cls-5{stroke-linecap:round;}.cls-3,.cls-6{stroke-miterlimit:10;}.cls-4{fill:#010101;}.cls-5{stroke-linejoin:round;}</style></defs><title>flyingcatRecurso 4</title><g id="Capa_2" data-name="Capa 2"><g id="Capa_1-2" data-name="Capa 1"><polygon class="cls-1" points="150.82 358.7 163.17 350.89 165.99 282.97 47.34 287.51 47.34 428.18 139.19 428.18 139.19 380.46 150.82 358.7"/><path class="cls-2" d="M120.87,289.54c-4.33,9.39-16.1,13.19-26.29,8.5s-15-16.12-10.62-25.51,16.1-13.2,26.28-8.5,15,16.11,10.63,25.51"/><path class="cls-2" d="M175.31,314.61c-4.32,9.4-16.1,13.2-26.29,8.51s-15-16.12-10.62-25.51,16.1-13.2,26.29-8.5,14.95,16.11,10.62,25.5"/><path class="cls-1" d="M47.34,461.41V247.75a10.41,10.41,0,0,1,10.38-10.38h1.15a10.41,10.41,0,0,1,10.38,10.38v32.14"/><path class="cls-3" d="M47.34,461.41V247.75a10.41,10.41,0,0,1,10.38-10.38h1.15a10.41,10.41,0,0,1,10.38,10.38v32.14"/><path class="cls-4" d="M180.12,328.42c3.5-7.08,3-20.17,2.51-26.28l15.18-31.83a2.62,2.62,0,0,0-3.12-3.63l-18.06,5.43c-13.95,1.51-23.26-2.9-33.56-8h0L128.59,257a56,56,0,0,1-14.47-22.17l-3.42-9.63a2.61,2.61,0,0,0-4.76-.38L89.17,255.51c-4.89,3.25-15.83,11-19.74,18.06-7.74,13.92-8.21,25.52-8.22,26a1.27,1.27,0,0,0,.55,1.11,45.18,45.18,0,0,0,5.1,3c7.93,4.1,24.1,10.2,41.45,3.66,9.28-3.49,17.19-11.53,21.94-17.26-1.68,7.25-3.28,18.41-.45,27.89a44.6,44.6,0,0,0,3.4,8.27,18.92,18.92,0,0,1-.52,8.29,2.5,2.5,0,0,0-.65,1.52,8.12,8.12,0,0,1-4.21,3.77,14.7,14.7,0,0,1-4.17-.06c-6.06-.84-9.48-6.14-10.69-8.42l3.41-6.9a6.68,6.68,0,0,0,6.48-3.68c1.62-3.3-1.51-3.69-4.81-5.32s-5.5-3.88-7.13-.59a6.65,6.65,0,0,0,.78,7.12l-3.46,7c-2.71.37-9.37.75-13.79-3.65-2-2-2.93-3.82-2.78-5.46A5.73,5.73,0,0,1,94,316.18a2.61,2.61,0,0,0-2.88-4.36,10.82,10.82,0,0,0-4.66,7.47c-.33,3.3,1.11,6.58,4.3,9.74A17.45,17.45,0,0,0,95,332.11a24,24,0,0,0,13.54,2.08s0,.07.06.1c-1.32,3.49-2.64,9.44.6,15,6.14,10.5,23.06,11.35,31.71,1.85a21.14,21.14,0,0,0,5.35-9.56,60.69,60.69,0,0,0,9.63,6.18,51,51,0,0,0,7.29,3.14c3.12,1.28,9.13-6.69,17-22.47M95.37,293.11a13.16,13.16,0,1,1,17.63-6,13.17,13.17,0,0,1-17.63,6M149.1,319.7a13.16,13.16,0,1,1,17.63-6,13.16,13.16,0,0,1-17.63,6"/><path class="cls-4" d="M105.89,272.59c-1.26-.65-4.29,2.7-6.77,7.48s-3.45,9.2-2.18,9.85,4.3-2.7,6.76-7.48,3.46-9.2,2.19-9.85"/><path class="cls-4" d="M159,300c-1.26-.65-4.29,2.7-6.77,7.48s-3.45,9.2-2.19,9.85,4.3-2.69,6.77-7.48,3.45-9.19,2.19-9.85"/><path class="cls-3" d="M86.5,337.36c-22.72-11.61-29.64-33-18-55.72"/><path class="cls-3" d="M118,353.45c22.72,11.61,44.12,4.69,55.73-18"/><path class="cls-1" d="M140,436.93s53.73-4.86,69.56-31c7.17-11.85-2.7-22.24-15.68-7.46-12.19,13.88-41.3,26.22-55.45,26.21"/><path class="cls-5" d="M140,436.93s53.73-4.86,69.56-31c7.17-11.85-2.7-22.24-15.68-7.46-12.19,13.88-41.3,26.22-55.45,26.21"/><path class="cls-1" d="M47.34,428.18v36a10.41,10.41,0,0,0,10.38,10.38h1.15a10.41,10.41,0,0,0,10.38-10.38v-36h47.33v34.05A10.41,10.41,0,0,0,127,472.61h1.16a10.41,10.41,0,0,0,10.37-10.38V394.67"/><path class="cls-5" d="M47.34,428.18v36a10.41,10.41,0,0,0,10.38,10.38h1.15a10.41,10.41,0,0,0,10.38-10.38v-36h47.33v34.05A10.41,10.41,0,0,0,127,472.61h1.16a10.41,10.41,0,0,0,10.37-10.38V394.67"/><path class="cls-1" d="M150.83,358.7l9.55,36A10.41,10.41,0,0,1,150,405h-1.15a10.41,10.41,0,0,1-10.38-10.38V375.91"/><path class="cls-3" d="M150.83,358.7l9.55,36A10.41,10.41,0,0,1,150,405h-1.15a10.41,10.41,0,0,1-10.38-10.38V375.91"/><path class="cls-4" d="M47.34,335.42s24,10.38,23.86,38c-.11,34.19-23.86,44.77-23.86,44.77"/><path class="cls-4" d="M139.19,421.47s-19.7-7.5-18-26.81c1.57-17.84,15.61-21,15.61-21"/><path class="cls-2" d="M117.92,59.46c0,32.29-26.17,81.69-58.46,81.69S1,91.75,1,59.46a58.46,58.46,0,0,1,116.92,0"/><path class="cls-6" d="M117.92,59.46c0,32.29-26.17,81.69-58.46,81.69S1,91.75,1,59.46a58.46,58.46,0,0,1,116.92,0Z"/><line class="cls-3" x1="59.46" y1="237.37" x2="59.46" y2="141.15"/></g></g></svg>