<svg xmlns="http://www.w3.org/2000/svg" viewBox="0 0 253.11 367.12"><defs><style>.cls-1{fill:#fff;}.cls-2,.cls-3,.cls-7,.cls-8{fill:none;stroke:#010101;stroke-linecap:round;}.cls-2{stroke-linejoin:round;}.cls-2,.cls-3{stroke-width:3.88px;}.cls-3,.cls-7,.cls-8{stroke-miterlimit:10;}.cls-4{fill:#dbda7a;}.cls-5{fill:#010101;}.cls-6{fill:#cbb999;}.cls-7{stroke-width:3.99px;}.cls-8{stroke-width:4.26px;}</style></defs><title>cat_boxRecurso 1</title><g id="Capa_2" data-name="Capa 2"><g id="Capa_1-2" data-name="Capa 1"><path class="cls-1" d="M51.27,222c14.17-7.33,30.15-34.79,35.16-55,5.33-21.53,20.6-16.25,19.57-.66-2.28,34.42-46.79,67.15-46.79,67.15"/><polygon class="cls-1" points="92.03 131 77.53 169.85 85.93 215.47 100.28 231.46 167.46 227.59 176.66 200.51 170.57 163.82 158.26 131 92.03 131"/><path class="cls-1" d="M75.5,180s-65.56-30-73-67.52c-3.39-17,12.62-25,21.59-2.11,8.43,21.5,37.41,48.38,54,54.38"/><path class="cls-2" d="M75.5,180s-65.56-30-73-67.52c-3.39-17,12.62-25,21.59-2.11,8.43,21.5,37.41,48.38,54,54.38"/><path class="cls-1" d="M104.12,141.11c-31.88,0-51.76-19.87-51.76-51.76L67.94,36.91H181.23l18.83,52.44c0,31.89-19.88,51.76-51.77,51.76"/><path class="cls-3" d="M104.12,141.11c-31.88,0-51.76-19.87-51.76-51.76L67.94,36.91H181.23l18.83,52.44c0,31.89-19.88,51.76-51.77,51.76"/><path class="cls-4" d="M111.33,71.9c0,12.93-11.38,23.4-25.4,23.4s-25.4-10.47-25.4-23.4S71.9,48.5,85.93,48.5s25.4,10.48,25.4,23.4"/><path class="cls-4" d="M186.24,71.9c0,12.93-11.37,23.4-25.39,23.4s-25.4-10.47-25.4-23.4,11.37-23.4,25.4-23.4S186.24,59,186.24,71.9"/><path class="cls-5" d="M203.22,77.91c-.13-9.87-8.15-24.15-12.15-30.68l-1.21-44A3.28,3.28,0,0,0,184.32.91l-17,16.31c-14.67,9.62-27.54,10-41.9,10.2h0l-20.17.26A70.1,70.1,0,0,1,76.51,11.24L67.22,2.46A3.28,3.28,0,0,0,61.7,4.75L60.53,48.5c-3.6,6.39-11.35,21.27-11.7,31.33-.69,19.88,5.39,33.06,5.65,33.61a1.63,1.63,0,0,0,1.24.93,57.39,57.39,0,0,0,7.39.44c11.16.06,32.62-2.35,48.22-19.51,8.33-9.16,12.56-22.6,14.59-31.68,2.25,9,6.82,22.35,15.36,31.3a56.15,56.15,0,0,0,8.49,7.26,23.6,23.6,0,0,1,4.14,9.52,3.16,3.16,0,0,0,.14,2.07,10.2,10.2,0,0,1-2.54,6.59,18.63,18.63,0,0,1-4.69,2.3c-7.22,2.51-14-1.43-16.68-3.29l-.12-9.62a8.33,8.33,0,0,0,5.11-7.78c-.06-4.59-3.77-3.25-8.37-3.19s-8.34-1.19-8.28,3.41a8.34,8.34,0,0,0,4.92,7.48l.12,9.72c-2.8,2-10,6.17-17.42,3.8-3.35-1.07-5.44-2.59-6.21-4.5-1-2.51.46-5.3.52-5.41a3.27,3.27,0,0,0-5.7-3.22c-.31.56-3,5.59-.93,11,1.51,3.86,5,6.68,10.34,8.39a21,21,0,0,0,6.47,1c7.1,0,13.16-3.3,16.25-5.38l.12.08c.51,4.63,2.43,12,9.2,16.34,12.79,8.2,32.11-.49,36.33-16,1.48-5.44,1.49-9.95.52-13.68a75.25,75.25,0,0,0,14.24,1.4,62.91,62.91,0,0,0,9.89-.65c4.2-.36,6.36-12.64,6.08-34.65M88.82,86.82a16.45,16.45,0,1,1,16.23-16.66A16.45,16.45,0,0,1,88.82,86.82m74.92-1A16.45,16.45,0,1,1,180,69.19a16.44,16.44,0,0,1-16.23,16.66"/><path class="cls-5" d="M88.86,58c-1.78,0-3.25,5.44-3.28,12.17S87,82.37,88.75,82.38,92,76.93,92,70.2,90.64,58,88.86,58"/><path class="cls-5" d="M163.57,58.33c-1.78,0-3.24,5.44-3.27,12.18s1.39,12.19,3.16,12.2,3.25-5.44,3.28-12.17-1.39-12.2-3.17-12.21"/><polyline class="cls-6" points="4.23 259.98 42.88 233.17 211.72 233.17 249.77 261.18"/><polyline class="cls-7" points="4.23 259.98 42.88 233.17 211.72 233.17 249.77 261.18"/><path class="cls-1" d="M103.86,242.07h-53a8,8,0,0,1-8-8v-.89a8,8,0,0,1,8-8H63.5l0-1.36s-23.24-33-4.17-44.59c6.82-4.16,17.58,1.59,17.58,1.59"/><path class="cls-2" d="M103.86,242.07h-53a8,8,0,0,1-8-8v-.89a8,8,0,0,1,8-8H63.5l0-1.36s-23.24-33-4.17-44.59c6.82-4.16,17.58,1.59,17.58,1.59"/><path class="cls-1" d="M84,200.51s-10.9-20.91-3.49-42.74c4.2-12.39,9.59-18.58,9.59-18.58"/><path class="cls-8" d="M84,200.51s-10.9-20.91-3.49-42.74c4.2-12.39,9.59-18.58,9.59-18.58"/><path class="cls-1" d="M150.74,242.07h53a8,8,0,0,0,8-8v-.89a8,8,0,0,0-8-8H191.1l.05-1.36s23.24-33,4.17-44.59c-6.82-4.16-17.58,1.59-17.58,1.59"/><path class="cls-2" d="M150.74,242.07h53a8,8,0,0,0,8-8v-.89a8,8,0,0,0-8-8H191.1l.05-1.36s23.24-33,4.17-44.59c-6.82-4.16-17.58,1.59-17.58,1.59"/><path class="cls-1" d="M170.59,200.51s10.89-20.91,3.49-42.74c-4.2-12.39-9.59-18.58-9.59-18.58"/><path class="cls-8" d="M170.59,200.51s10.89-20.91,3.49-42.74c-4.2-12.39-9.59-18.58-9.59-18.58"/><path class="cls-1" d="M127.65,198.46v33a13,13,0,0,1-13,13h-1.44a13,13,0,0,1-13-13V186.52"/><path class="cls-8" d="M127.65,198.46v33a13,13,0,0,1-13,13h-1.44a13,13,0,0,1-13-13V186.52"/><path class="cls-1" d="M155,186.52v44.94a13,13,0,0,1-13,13h-1.44a13,13,0,0,1-13-13v-33"/><path class="cls-8" d="M155,186.52v44.94a13,13,0,0,1-13,13h-1.44a13,13,0,0,1-13-13v-33"/><path class="cls-6" d="M245.29,365.13H7.82A5.82,5.82,0,0,1,2,359.31v-94.7a5.81,5.81,0,0,1,5.82-5.82H245.29a5.81,5.81,0,0,1,5.82,5.82v94.7a5.82,5.82,0,0,1-5.82,5.82"/><rect class="cls-7" x="2" y="258.79" width="249.12" height="106.34" rx="5.82" ry="5.82"/><path class="cls-5" d="M98.36,139.41s4.87,14.23-.84,29.2a34.71,34.71,0,0,1-19.31,19.63S75.28,167,81.62,152.81s16.74-13.4,16.74-13.4"/><path class="cls-5" d="M176.91,188.23s4.87-14.23-.84-29.2a34.71,34.71,0,0,0-19.31-19.63s-2.94,21.24,3.41,35.43,16.74,13.4,16.74,13.4"/></g></g></svg>