<svg xmlns="http://www.w3.org/2000/svg" viewBox="0 0 99.16 107.77"><defs><style>.cls-1{fill:#e6204e;stroke:#010101;stroke-linecap:round;stroke-linejoin:round;stroke-width:3px;}.cls-2{font-size:30px;font-family:Rubik-Medium, Rubik;font-weight:500;letter-spacing:-0.03em;}</style></defs><title>icon_01Recurso 1</title><g id="Capa_2" data-name="Capa 2"><g id="Capa_1-2" data-name="Capa 1"><g id="Capa_1-2-2" data-name="Capa 1-2"><path class="cls-1" d="M51.71,106.23H47.79a4,4,0,0,1-2.69-.94l-5.21-3.4H59.55l-5.18,3.43a4.06,4.06,0,0,1-2.69,1m8.08-8.76H39.81a2.18,2.18,0,0,1,0-4.36H59.74a2.18,2.18,0,1,1,.34,4.35h-.34m2.16-8.76H37.55c0-17.24-14.12-24.65-14.16-40.23,0-16.25,13-25.24,26.12-25.28s26.25,9,26.3,25.18c0,15.59-14,22.88-13.94,40.38M14.79,49H1.5V41.49H15.15a26.81,26.81,0,0,0-.43,5.06Zm82.87-.24H84.44l.1-2.42a29.57,29.57,0,0,0-.46-5.06H97.63Zm-75-22.37a31.2,31.2,0,0,0-4.38,6.08L7.54,24.81l4.31-6.11Zm53.72-.17L87.17,18.5l4.34,6.07L80.74,32.22a31.9,31.9,0,0,0-4.33-6M36.59,17.13a36.06,36.06,0,0,0-6.73,3.27L24.05,8.59l6.73-3.31ZM62.38,17,68.14,5.17l6.73,3.28-5.73,11.8A36.52,36.52,0,0,0,62.41,17m-9.16-2c-1.22-.1-2.45-.17-3.71-.16a36.67,36.67,0,0,0-3.78.2V1.5h7.49Z"/></g><text class="cls-2" transform="translate(39.2 61.14)">A</text></g></g></svg>