<svg xmlns="http://www.w3.org/2000/svg" viewBox="0 0 89.74 120.11"><defs><style>.cls-1{fill:#fff;}.cls-1,.cls-2,.cls-3{stroke:#010101;stroke-linecap:round;stroke-linejoin:round;}.cls-1,.cls-2{stroke-width:3px;}.cls-2,.cls-3{fill:#e6204e;}.cls-3{stroke-width:4px;}</style></defs><title>icon_05Recurso 5</title><g id="Capa_2" data-name="Capa 2"><g id="Capa_1-2" data-name="Capa 1"><path class="cls-1" d="M54.68,25.86v-4.5A2.89,2.89,0,0,0,53.39,19C51.55,17.73,48,15.71,45,15.71s-6.37,1.77-8.09,2.85a2.58,2.58,0,0,0-1.21,2.19V25.8Z"/><circle class="cls-2" cx="45.17" cy="7.69" r="5.69"/><path class="cls-1" d="M88.24,25.86v-4.5A2.9,2.9,0,0,0,87,19c-1.85-1.22-5.37-3.24-8.44-3.24s-6.37,1.77-8.09,2.85a2.6,2.6,0,0,0-1.21,2.19V25.8Z"/><circle class="cls-2" cx="78.73" cy="7.69" r="5.69"/><g id="Capa_1-2-2" data-name="Capa 1-2"><polygon class="cls-3" points="2.64 39.24 2.59 21.22 22.52 21.37 22.57 39.38 2.64 39.24"/><path class="cls-3" d="M72.71,84.42a37.32,37.32,0,0,1-3.93,17.43,28.29,28.29,0,0,1-11.89,12Q49,118.2,37.48,118.11q-17.2-.14-26.23-9.41T2.19,83.89L2,20.24H23.51l0,62.85q0,9.21,3.37,13.7t10.51,4.54q7.29,0,10.62-4.4t3.26-13.65l.48-44.65,19.94.14Z"/></g><polygon class="cls-1" points="21.53 38.32 4 38.3 3.74 21.77 21.52 21.8 21.53 38.32"/><path class="cls-1" d="M73.51,30.57V25.09a3.53,3.53,0,0,0-1.57-2.94c-2.25-1.49-6.54-4-10.28-4s-7.76,2.17-9.86,3.49a3.13,3.13,0,0,0-1.47,2.67v6.14Z"/><circle class="cls-2" cx="61.92" cy="8.43" r="6.93"/></g></g></svg>