<svg xmlns="http://www.w3.org/2000/svg" viewBox="0 0 103.22 103.38"><defs><style>.cls-1{fill:#e6204e;stroke-linecap:round;stroke-width:4px;}.cls-1,.cls-2{stroke:#010101;stroke-linejoin:round;}.cls-2{fill:#fff;stroke-width:2px;}</style></defs><title>icon_10Recurso 9</title><g id="Capa_2" data-name="Capa 2"><g id="Capa_1-2" data-name="Capa 1"><g id="Capa_1-2-2" data-name="Capa 1-2"><path class="cls-1" d="M7.67,98.72l-3-3A4.3,4.3,0,0,1,3.37,93L2,86.45l14.93,14.93-6.54-1.33a4.37,4.37,0,0,1-2.77-1.32m12.79-.52L5.25,83.07a2.34,2.34,0,1,1,3.31-3.31L23.7,94.9a2.34,2.34,0,1,1-3,3.56,2.13,2.13,0,0,1-.26-.26m8.28-5L10.2,74.69C23.29,61.6,18.19,45.26,30,33.4,42.33,21.06,59,24.12,69,34s13.12,26.73.85,39.09C58,85,41.88,79.89,28.62,93.2m-5.51-66L13,17.13l5.68-5.69L29.07,21.81a29.7,29.7,0,0,0-4.17,3.51ZM86.22,90l-10-10,1.91-1.77A31.15,31.15,0,0,0,81.59,74L91.88,84.25ZM46.28,16a32.94,32.94,0,0,0-7.94,1.3L36,3.37,43.87,2ZM87.2,56.7l14,2.34-1.32,7.9-14-2.37A34.49,34.49,0,0,0,87.2,56.7M63.85,19.59A39.87,39.87,0,0,0,56.26,17L60.81,3.58l7.62,2.6Zm19.66,19.5,13.37-4.62,2.63,7.59L86.19,46.67a38.36,38.36,0,0,0-2.66-7.56m-5.42-8.47A41.16,41.16,0,0,0,72.38,25l10.3-10.29,5.69,5.7Z"/></g><path class="cls-2" d="M33,55.31a.63.63,0,0,1,.21-.48l.25-.16,20.16-9.23a1.18,1.18,0,0,1,1.39.25l2.5,2.51a1.15,1.15,0,0,1,.25,1.39L48.54,69.75l-.16.25a.65.65,0,0,1-.49.19.69.69,0,0,1-.47-.19l-2-2a.92.92,0,0,1-.22-1.09l1.7-3.81-6.74-6.74L36.33,58a.94.94,0,0,1-1.1-.23l-2-2A.62.62,0,0,1,33,55.31Zm10.57-.82,5.15,5.14L53.16,50Z"/></g></g></svg>