<svg xmlns="http://www.w3.org/2000/svg" viewBox="0 0 115.68 113.62"><defs><style>.cls-1{fill:none;stroke-miterlimit:10;stroke-width:0.8px;}.cls-1,.cls-5{stroke:#010101;}.cls-2,.cls-5{fill:#e5224f;}.cls-3{fill:#fff;}.cls-4{fill:#010101;}.cls-5{stroke-linecap:round;stroke-linejoin:round;stroke-width:4px;}</style></defs><title>icon_11Recurso 10</title><g id="Capa_2" data-name="Capa 2"><g id="Capa_1-2" data-name="Capa 1"><g id="Capa_2-2" data-name="Capa 2"><g id="Capa_1-2-2" data-name="Capa 1-2"><polyline class="cls-1" points="60.53 93.56 55.57 93.57 55.58 98.54"/><rect class="cls-2" x="8.23" y="88.98" width="22.03" height="22.03"/><rect class="cls-3" x="46.38" y="74.78" width="22.03" height="36.23"/><rect class="cls-2" x="84.52" y="45.93" width="22.03" height="65.08"/><path class="cls-4" d="M113.62,113.62H2.06a2.07,2.07,0,0,1,0-4.13H113.62a2.07,2.07,0,0,1,0,4.13"/><path class="cls-4" d="M30.26,113.07A2.06,2.06,0,0,1,28.2,111h0V91H10.31v20a2.07,2.07,0,0,1-4.13,0V89a2.07,2.07,0,0,1,2.05-2h22A2.06,2.06,0,0,1,32.32,89h0v22a2.06,2.06,0,0,1-2.06,2.06h0"/><path class="cls-4" d="M68.4,113.07A2.07,2.07,0,0,1,66.34,111h0V76.84H48.45V111a2.06,2.06,0,0,1-4.12,0V74.78a2.07,2.07,0,0,1,2.06-2.07h22a2.07,2.07,0,0,1,2.06,2.07h0V111a2.06,2.06,0,0,1-2.06,2.06h0"/><path class="cls-4" d="M106.55,113.07a2.06,2.06,0,0,1-2.06-2.06h0V48H86.6v63a2.07,2.07,0,0,1-4.13,0V45.93a2.05,2.05,0,0,1,2-2.06h22a2.06,2.06,0,0,1,2.06,2.06h0V111a2.06,2.06,0,0,1-2.06,2.06h0"/></g></g><polygon class="cls-5" points="107.31 2 80.26 7.58 88.02 15.25 57.26 45.72 43.64 32.19 8.38 67.48 14.76 73.87 43.66 44.97 57.19 58.41 94.42 21.61 101.96 29.08 107.31 2"/></g></g></svg>