<svg xmlns="http://www.w3.org/2000/svg" viewBox="0 0 107.25 116.5"><defs><style>.cls-1{fill:#e6204e;stroke:#010101;stroke-linecap:round;stroke-linejoin:round;stroke-width:4px;}.cls-2{font-size:32.21px;fill:#fff;font-family:Rubik-Medium, Rubik;font-weight:500;letter-spacing:-0.03em;}</style></defs><title>icon_04Recurso 4</title><g id="Capa_2" data-name="Capa 2"><g id="Capa_1-2" data-name="Capa 1"><g id="Capa_1-2-2" data-name="Capa 1-2"><path class="cls-1" d="M55.91,114.46H51.7a4.31,4.31,0,0,1-2.89-1l-5.59-3.66H64.34l-5.57,3.69a4.33,4.33,0,0,1-2.89,1m8.67-9.41-21.42,0a2.34,2.34,0,1,1,0-4.68H64.54a2.34,2.34,0,1,1,.37,4.66h-.37m2.31-9.4H40.71c0-18.52-15.17-26.47-15.21-43.21,0-17.44,14-27.09,28.05-27.14S81.74,35,81.8,52.38c0,16.74-15,24.57-15,43.36M16.27,53H2v-8H16.66a29.07,29.07,0,0,0-.47,5.43Zm89-.26H91.06l.1-2.61a30,30,0,0,0-.49-5.43h14.55Zm-80.5-24a33.27,33.27,0,0,0-4.7,6.54L8.49,27l4.62-6.56Zm57.68-.18L94,20.25l4.66,6.52L87.09,35a34.51,34.51,0,0,0-4.66-6.47M39.68,18.78a39.88,39.88,0,0,0-7.23,3.51L26.21,9.62l7.23-3.56Zm27.69-.12L73.56,6l7.22,3.51L74.63,22.13a39.71,39.71,0,0,0-7.23-3.47m-9.83-2.15c-1.31-.11-2.63-.19-4-.17a39.43,39.43,0,0,0-4.06.21V2h8Z"/></g><text class="cls-2" transform="translate(42.48 66.04)">A</text></g></g></svg>