<svg xmlns="http://www.w3.org/2000/svg" viewBox="0 0 160.27 115.34"><defs><style>.cls-1{fill:#fff;}.cls-2{fill:#010101;}.cls-3{fill:#e6204e;}</style></defs><title>icon2Recurso 2</title><g id="Capa_2" data-name="Capa 2"><g id="Capa_1-2" data-name="Capa 1"><rect class="cls-1" x="3.18" y="1.76" width="155" height="111" rx="5.05" ry="5.05"/><path class="cls-2" d="M8.54,113v-2.34A3.53,3.53,0,0,1,5,107.14L4.69,8.67A3.54,3.54,0,0,1,8.2,5.14l143.54-.45a3.53,3.53,0,0,1,3.53,3.5l.3,98.48a3.5,3.5,0,0,1-3.49,3.52l-143.55.46v4.69l143.54-.45a8.22,8.22,0,0,0,8.18-8.24L160,8.18A8.21,8.21,0,0,0,151.73,0L8.18.46A8.2,8.2,0,0,0,0,8.69l.31,98.47a8.21,8.21,0,0,0,8.24,8.18Z"/><polyline class="cls-2" points="7.03 63.47 7.05 72.33 11.74 72.32 11.71 63.46"/><polyline class="cls-2" points="148.67 64.84 148.69 70.07 153.38 70.05 153.36 64.83"/><path class="cls-3" d="M79.43,94.47H76.52a3,3,0,0,1-2-.7l-3.87-2.53,14.61,0-3.85,2.55a3,3,0,0,1-2,.71m6-6.51L70.59,88a1.62,1.62,0,0,1,0-3.24l14.81,0a1.62,1.62,0,1,1,0,3.23M87,81.48l-18.09,0c0-12.81-10.49-18.31-10.52-29.89,0-12.07,9.67-18.75,19.41-18.78S97.3,39.47,97.34,51.52c0,11.58-10.39,17-10.36,30M52,51.93l-9.87,0,0-5.56,10.14,0a20.31,20.31,0,0,0-.32,3.76Zm61.57-.18-9.82,0,.07-1.8a21.2,21.2,0,0,0-.34-3.76l10.07,0ZM57.87,35.13a22.82,22.82,0,0,0-3.25,4.52l-8-5.67,3.2-4.54ZM97.78,35l8-5.71L109,33.8l-8,5.68A23.82,23.82,0,0,0,97.78,35M68.2,28.27a27.21,27.21,0,0,0-5,2.43l-4.32-8.77,5-2.46Zm19.16-.08,4.28-8.8,5,2.43-4.26,8.77a27,27,0,0,0-5-2.4m-6.8-1.49c-.91-.08-1.82-.13-2.76-.12a26.17,26.17,0,0,0-2.81.15l0-10.07,5.57,0Z"/></g></g></svg>