<svg xmlns="http://www.w3.org/2000/svg" viewBox="0 0 128.33 110.26"><defs><style>.cls-1,.cls-2{fill:#e6204e;}.cls-1,.cls-2,.cls-3,.cls-4{stroke:#010101;stroke-linecap:round;stroke-linejoin:round;}.cls-1,.cls-3{stroke-width:3px;}.cls-2{stroke-width:4px;}.cls-3,.cls-4{fill:#fff;}.cls-4{stroke-width:3.5px;}</style></defs><title>icon_15Recurso 11</title><g id="Capa_2" data-name="Capa 2"><g id="Capa_1-2" data-name="Capa 1"><path class="cls-1" d="M91.29,43.23l3.18-3.18a2.87,2.87,0,0,0,.79-2.62c-.44-2.17-1.49-6.09-3.66-8.26s-5.76-3.24-7.75-3.7a2.58,2.58,0,0,0-2.4.7l-3.56,3.56Z"/><circle class="cls-1" cx="97.41" cy="23.66" r="5.69"/><path class="cls-1" d="M115,67l3.18-3.18a2.89,2.89,0,0,0,.8-2.61c-.44-2.18-1.5-6.09-3.67-8.27s-5.76-3.24-7.74-3.7a2.62,2.62,0,0,0-2.41.7l-3.56,3.57Z"/><circle class="cls-1" cx="121.14" cy="47.39" r="5.69"/><g id="Capa_1-2-2" data-name="Capa 1-2"><polygon class="cls-2" points="45.03 15.89 57.73 3.11 71.72 17.31 59.02 30.09 45.03 15.89"/><path class="cls-2" d="M62.64,97.38a37.2,37.2,0,0,1-15.11,9.55,28.24,28.24,0,0,1-16.9.08q-8.68-2.54-16.73-10.72Q1.82,84,2,71.1t11.14-24L58,2l15.2,15.22L28.82,61.69q-6.5,6.54-7.31,12.07T25.74,84.4q5.11,5.2,10.62,4.4t12-7.35L80.23,50.22l14,14.2Z"/></g><polygon class="cls-3" points="60.06 29.62 45.6 15.13 57.81 2.5 72.47 17.21 60.06 29.62"/><path class="cls-4" d="M101.28,59.87,105.15,56a3.53,3.53,0,0,0,1-3.19c-.54-2.65-1.83-7.42-4.47-10.07s-7-4-9.44-4.51a3.13,3.13,0,0,0-2.92.85l-4.35,4.35Z"/><circle class="cls-4" cx="108.73" cy="36.02" r="6.93"/></g></g></svg>