<svg xmlns="http://www.w3.org/2000/svg" viewBox="0 0 174.56 105.25"><defs><style>.cls-1{fill:none;stroke:#010101;stroke-miterlimit:10;stroke-width:0.8px;}.cls-2{fill:#e6204e;}.cls-3{fill:#fff;}</style></defs><title>whiteRecurso 2</title><g id="Capa_2" data-name="Capa 2"><g id="Capa_1-2" data-name="Capa 1"><polyline class="cls-1" points="91.34 74.98 83.85 75 83.87 82.5"/><rect class="cls-2" x="12.42" y="68.07" width="33.24" height="33.24"/><rect class="cls-2" x="69.98" y="46.64" width="33.24" height="54.66"/><rect class="cls-2" x="127.54" y="3.11" width="33.24" height="98.2"/><path class="cls-3" d="M171.45,105.25H3.11a3.11,3.11,0,0,1,0-6.22H171.45a3.11,3.11,0,1,1,0,6.22Z"/><path class="cls-3" d="M45.66,104.42a3.11,3.11,0,0,1-3.11-3.11V71.18h-27v30.13a3.11,3.11,0,0,1-6.22,0V68.07A3.11,3.11,0,0,1,12.42,65H45.66a3.11,3.11,0,0,1,3.11,3.11v33.24A3.11,3.11,0,0,1,45.66,104.42Z"/><path class="cls-3" d="M103.22,104.42a3.11,3.11,0,0,1-3.11-3.11V49.75h-27v51.56a3.11,3.11,0,1,1-6.22,0V46.64A3.11,3.11,0,0,1,70,43.53h33.24a3.11,3.11,0,0,1,3.11,3.11v54.67A3.11,3.11,0,0,1,103.22,104.42Z"/><path class="cls-3" d="M160.78,104.42a3.11,3.11,0,0,1-3.11-3.11V6.22h-27v95.09a3.11,3.11,0,1,1-6.22,0V3.11A3.11,3.11,0,0,1,127.54,0h33.24a3.11,3.11,0,0,1,3.11,3.11v98.2A3.11,3.11,0,0,1,160.78,104.42Z"/></g></g></svg>