<svg xmlns="http://www.w3.org/2000/svg" viewBox="0 0 172.6 149.3"><defs><style>.cls-1{fill:#fff;}.cls-2{fill:#010101;}.cls-3{fill:#e6204e;}</style></defs><title>iconRecurso 1</title><g id="Capa_2" data-name="Capa 2"><g id="Capa_1-2" data-name="Capa 1"><path class="cls-1" d="M169.83,104.79l-.31-97.64a4.58,4.58,0,0,0-4.59-4.55L7.15,3.1A4.58,4.58,0,0,0,2.6,7.69l.31,97.64Z"/><path class="cls-2" d="M169.83,104.79h2.6l-.31-97.64A7.18,7.18,0,0,0,164.93,0L7.15.5A7.18,7.18,0,0,0,0,7.69L.32,107.93l172.12-.55v-2.59h-2.6V102.2L5.5,102.72l-.3-95a1.93,1.93,0,0,1,.57-1.4A1.9,1.9,0,0,1,7.16,5.7l157.78-.5a2,2,0,0,1,2,2l.31,97.64h2.6v0Z"/><path class="cls-1" d="M2.78,105.23l0,14.08c0,2.7,2.79,5.7,5.49,5.69l157.39-.5c2.71,0,4.31-2.79,4.31-5.49l0-14.31Z"/><path class="cls-2" d="M2.78,105.23H.18l0,14.08A8.49,8.49,0,0,0,2.67,125a9,9,0,0,0,2.47,1.85,7.09,7.09,0,0,0,3.18.79l157.39-.5a6.35,6.35,0,0,0,3.1-.83,7.32,7.32,0,0,0,2.89-3.22,9.18,9.18,0,0,0,.9-4l0-16.91L.17,102.64v2.6h2.6v2.59l164.59-.52,0,11.72a4,4,0,0,1-.65,2.23,1.76,1.76,0,0,1-.53.51,1,1,0,0,1-.54.14L8.3,122.4a1.79,1.79,0,0,1-.82-.23A4.08,4.08,0,0,1,6,120.83a2.9,2.9,0,0,1-.57-1.53l0-14.08H2.78v0Z"/><path class="cls-2" d="M113.73,144.14c-1.45-.62-3.24-1.43-4.13-1.91h0c-.47-.26-.8-.44-.92-.53l-.08-.06h0l-.06.05.07-.05h0l-.06.05.07-.05a1.59,1.59,0,0,1-.19-.47,17.13,17.13,0,0,1-.43-1.79,33.54,33.54,0,0,1-.36-5.76c0-2,0-4.05,0-5.87,0-1.09,0-2.08-.09-3l-.19-2.39-41.84-.08-.19,2.39c-.07.9-.09,1.91-.09,3,0,1.85.07,4,.07,6a34.9,34.9,0,0,1-.31,5.81v0a15.21,15.21,0,0,1-.42,1.75,2.46,2.46,0,0,1-.17.43l-.11.09a10.52,10.52,0,0,1-1,.6h0c-.86.49-2.62,1.29-4.05,1.92l2.08,4.76c1.51-.66,3.28-1.46,4.49-2.13l.25-.14-.24.14c.44-.25.85-.47,1.33-.78a6.49,6.49,0,0,0,1.1-.94,6.09,6.09,0,0,0,1.19-2.08,17.32,17.32,0,0,0,.66-2.61h0a38.76,38.76,0,0,0,.41-6.8c0-2.1-.07-4.23-.07-6,0-1,0-2,.07-2.59L68,124.92v2.6l37,.07V125l-2.59.2c0,.63.07,1.54.07,2.57,0,1.72,0,3.81,0,5.87a37.4,37.4,0,0,0,.46,6.77,22.26,22.26,0,0,0,.56,2.3,7.52,7.52,0,0,0,.59,1.44,5.29,5.29,0,0,0,1.52,1.71,13.77,13.77,0,0,0,1.53.92h0c1.22.66,3,1.46,4.54,2.12Z"/><polyline class="cls-2" points="55.63 149.3 117.39 149.1 117.37 143.91 55.61 144.1"/><path class="cls-3" d="M69,91.44l-18.47,0L50.46,73,68.94,73ZM93.55,63.65l-18.47.06.08,27.71,18.47-.06Zm24.6-12.39-18.48.06.12,40,18.48,0Zm-.1-33.87L99.58,21.2l5.3,5.24-21,20.8L74.58,38,50.5,62.1l4.36,4.36L74.59,46.73l9.24,9.18,25.42-25.13,5.15,5.1Z"/></g></g></svg>