<svg xmlns="http://www.w3.org/2000/svg" viewBox="0 0 80.27 152.92"><defs><style>.cls-1{fill:#fff;}.cls-2{fill:none;stroke:#010101;stroke-miterlimit:10;stroke-width:0.8px;}.cls-3{fill:#010101;}.cls-4{fill:#e6204e;}</style></defs><title>mobileRecurso 3</title><g id="Capa_2" data-name="Capa 2"><g id="Capa_1-2" data-name="Capa 1"><rect class="cls-1" x="2.82" y="2.92" width="75" height="147" rx="6.92" ry="6.92"/><line class="cls-2" x1="34.56" y1="75.48" x2="30.03" y2="75.49"/><path class="cls-3" d="M78,145.69h-2.3a2.41,2.41,0,0,1-2.4,2.41l-65.82.21A2.41,2.41,0,0,1,5,145.92L4.6,7.22A2.42,2.42,0,0,1,7,4.81L72.82,4.6A2.39,2.39,0,0,1,75.22,7l.45,138.7h4.6L79.83,7a7,7,0,0,0-7-7L7,.21a7,7,0,0,0-7,7l.44,138.7a7,7,0,0,0,7,7l65.82-.21a7,7,0,0,0,7-7Z"/><polyline class="cls-3" points="37.37 142.07 43.32 142.06 43.3 137.45 37.35 137.47"/><path class="cls-4" d="M39.59,119.79h3.23l0-16.52H39.55Zm-6-9.77H36.8l0-9H33.58Zm12.2-.1H49L48.92,101H45.68Zm-10-47.18A5.33,5.33,0,1,0,41,57.4a5.32,5.32,0,0,0-5.31,5.34m8,13.3a2.66,2.66,0,1,0-2.65,2.67A2.66,2.66,0,0,0,43.74,76m-25,27.29C17,88.2,24.88,82.17,28.13,79v0C27.44,74.52,24.47,55.66,41,41.16,57.77,55.62,55.11,74.28,54.46,78.88c3.27,3.19,11.26,9.17,9.59,24.32A18.7,18.7,0,0,0,50.79,92.52c-.46,1.12-1.53,3.66-2,4.69l-14.49.09c-.52-1-1.78-3.65-2.27-4.8-5.29,1-9.87,3.55-13.29,10.83"/></g></g></svg>