<?xml version="1.0" encoding="UTF-8"?>
<svg xmlns="http://www.w3.org/2000/svg" viewBox="0 0 216.96 69.47"><defs><style>.cls-1{fill:#fff;}.cls-2{fill:#221f20;}</style></defs><title>blackRecurso 1</title><g id="Capa_2" data-name="Capa 2"><g id="Capa_1-2" data-name="Capa 1"><path class="cls-1" d="M90.77,26H85.51a1,1,0,0,1-1.22-1.22v-22a1.28,1.28,0,0,1,.29-.94,1.28,1.28,0,0,1,.93-.29h15.12a1.31,1.31,0,0,1,.94.29,1.32,1.32,0,0,1,.29.94v4a1.28,1.28,0,0,1-.29.93,1.26,1.26,0,0,1-.94.29H92v3.53h5.9a1.28,1.28,0,0,1,.93.29,1.28,1.28,0,0,1,.29.93v4.07a1,1,0,0,1-1.22,1.22H92v6.68a1.28,1.28,0,0,1-.29.93,1.24,1.24,0,0,1-.93.29"/><path class="cls-1" d="M123.73,26H106.47a1,1,0,0,1-1.22-1.22v-22a1.28,1.28,0,0,1,.29-.94,1.28,1.28,0,0,1,.93-.29h5.25a1.32,1.32,0,0,1,.94.29,1.32,1.32,0,0,1,.28.94V19.54h4.65V14.05a1.28,1.28,0,0,1,.29-.93,1.24,1.24,0,0,1,.93-.29h4.92a1.24,1.24,0,0,1,.93.29,1.28,1.28,0,0,1,.29.93V24.73a1.28,1.28,0,0,1-.29.93,1.24,1.24,0,0,1-.93.29"/><path class="cls-1" d="M139.5,26H134a1.05,1.05,0,0,1-1.23-1.22V20.39l-5.18-7a6.8,6.8,0,0,1-1-1.83,8.07,8.07,0,0,1-.25-2.34V2.76a1.28,1.28,0,0,1,.29-.94,1.28,1.28,0,0,1,.93-.29h5.22a1.28,1.28,0,0,1,.93.29,1.32,1.32,0,0,1,.29.94V8.32A6,6,0,0,0,134,9a1.38,1.38,0,0,0,.27.71l1.56,2.44a1.28,1.28,0,0,0,.35.44.72.72,0,0,0,.46.14H137a.72.72,0,0,0,.46-.14,1.28,1.28,0,0,0,.35-.44l1.56-2.44a1.38,1.38,0,0,0,.27-.71,6,6,0,0,0,0-.71V2.76a1.28,1.28,0,0,1,.29-.94,1.28,1.28,0,0,1,.93-.29h5.05a1.28,1.28,0,0,1,.93.29,1.28,1.28,0,0,1,.29.94V9.27a7.61,7.61,0,0,1-.27,2.34,7.57,7.57,0,0,1-1,1.83l-5.15,7v4.31a1.28,1.28,0,0,1-.29.93,1.24,1.24,0,0,1-.93.29"/><path class="cls-1" d="M151.71,26a1,1,0,0,1-1.22-1.22v-4a1.31,1.31,0,0,1,.28-.94,1.32,1.32,0,0,1,.94-.29h3.35V8.08h-3.35a1.32,1.32,0,0,1-.94-.29,1.28,1.28,0,0,1-.28-.93V2.76a1.32,1.32,0,0,1,.28-.94,1.32,1.32,0,0,1,.94-.29h14.45a1.31,1.31,0,0,1,.93.29,1.32,1.32,0,0,1,.29.94v4.1a1.28,1.28,0,0,1-.29.93,1.31,1.31,0,0,1-.93.29h-3.29V19.47h3.29a1.05,1.05,0,0,1,1.22,1.23v4A1,1,0,0,1,166.16,26Z"/><path class="cls-1" d="M177.85,26h-5.08a1,1,0,0,1-1.22-1.22v-22a1.32,1.32,0,0,1,.28-.94,1.32,1.32,0,0,1,.94-.29h3.52a2.68,2.68,0,0,1,1.11.21,2.55,2.55,0,0,1,.89.71L184.87,10V2.76a1.32,1.32,0,0,1,.29-.94,1.28,1.28,0,0,1,.93-.29h5.09a1.28,1.28,0,0,1,.93.29,1.28,1.28,0,0,1,.29.94v22A1,1,0,0,1,191.18,26h-5.09a1.24,1.24,0,0,1-.93-.29,1.28,1.28,0,0,1-.29-.93V20.56l-5.8-7V24.73A1,1,0,0,1,177.85,26"/><path class="cls-1" d="M215.74,26H205.05q-4.23,0-6.29-1.69t-2-5.23V8.45a6.37,6.37,0,0,1,2-5.22q2.06-1.69,6.29-1.7h8.48a1.28,1.28,0,0,1,.93.29,1.32,1.32,0,0,1,.29.94v4.1a1.28,1.28,0,0,1-.29.93,1.28,1.28,0,0,1-.93.29h-7.05a2.42,2.42,0,0,0-1.56.42,1.58,1.58,0,0,0-.51,1.28v8.1a1.76,1.76,0,0,0,.39,1.26,1.55,1.55,0,0,0,1.17.4h3.29V14.25a1.24,1.24,0,0,1,.29-.93,1.28,1.28,0,0,1,.93-.29h5.26a1.29,1.29,0,0,1,.93.29,1.28,1.28,0,0,1,.29.93V24.73a1.28,1.28,0,0,1-.29.93,1.25,1.25,0,0,1-.93.29"/><path class="cls-1" d="M99.7,53.76H91.43q-4.25,0-6.29-1.69a6.38,6.38,0,0,1-2.06-5.22V36.3a6.44,6.44,0,0,1,2.06-5.24q2-1.71,6.29-1.71H99.7a1,1,0,0,1,1.22,1.22v4.1a1,1,0,0,1-1.22,1.22H92.89a2.34,2.34,0,0,0-1.56.43,1.55,1.55,0,0,0-.51,1.27v8.07a1.47,1.47,0,0,0,.51,1.24,2.54,2.54,0,0,0,1.56.39H99.7a1,1,0,0,1,1.22,1.22v4a1,1,0,0,1-1.22,1.22"/><path class="cls-1" d="M111.67,52.54a1,1,0,0,1-1.22,1.22h-5a1,1,0,0,1-1.22-1.22V43.59a9.73,9.73,0,0,1,.32-2.34,25.71,25.71,0,0,1,1-3.09l3-7.69a1.56,1.56,0,0,1,.63-.85,2,2,0,0,1,1.1-.27h9.12a2,2,0,0,1,1.07.27,1.61,1.61,0,0,1,.63.85l3,7.69a27.64,27.64,0,0,1,1,3.09,10.26,10.26,0,0,1,.32,2.34v8.95a1.32,1.32,0,0,1-.29.94,1.28,1.28,0,0,1-.93.28H119a1.47,1.47,0,0,1-1-.28,1.2,1.2,0,0,1-.32-.94V47.8h-6Zm1.94-16.07L112,41.62h5.33l-1.6-5.15a1.2,1.2,0,0,0-.29-.44.5.5,0,0,0-.35-.14h-.85a.52.52,0,0,0-.35.14,1.2,1.2,0,0,0-.29.44"/><path class="cls-1" d="M139.69,53.76h-5.5a1.28,1.28,0,0,1-.93-.28,1.32,1.32,0,0,1-.29-.94V35.89h-5a1.25,1.25,0,0,1-.94-.29,1.28,1.28,0,0,1-.29-.93v-4.1a1.28,1.28,0,0,1,.29-.93,1.25,1.25,0,0,1,.94-.29h17.9a1,1,0,0,1,1.22,1.22v4.1a1,1,0,0,1-1.22,1.22h-5V52.54a1.32,1.32,0,0,1-.29.94,1.28,1.28,0,0,1-.93.28"/><path class="cls-1" d="M87.8,63.49l2.46-4.26a1.73,1.73,0,0,1,.17-.21.46.46,0,0,1,.38-.14h.88a.35.35,0,0,1,.25.1.37.37,0,0,1,.1.25v8.34a.37.37,0,0,1-.1.25.39.39,0,0,1-.25.1h-1a.37.37,0,0,1-.24-.1.34.34,0,0,1-.11-.25v-5l-1.67,2.91a1.71,1.71,0,0,1-.19.21.4.4,0,0,1-.29.11h-.67a.44.44,0,0,1-.3-.11,1.06,1.06,0,0,1-.18-.21l-1.68-2.91v5a.37.37,0,0,1-.1.25.39.39,0,0,1-.25.1h-1a.37.37,0,0,1-.24-.1.33.33,0,0,1-.1-.25V59.23a.33.33,0,0,1,.1-.25.33.33,0,0,1,.24-.1h.88a.46.46,0,0,1,.38.14l.18.21Z"/><path class="cls-1" d="M105.54,58.88a.38.38,0,0,1,.31.11.84.84,0,0,1,.18.33l3.16,8.16a.29.29,0,0,1,0,.09.34.34,0,0,1-.11.25.37.37,0,0,1-.24.1h-.93a.47.47,0,0,1-.36-.11.69.69,0,0,1-.15-.21l-.55-1.44h-4.08l-.56,1.44a.64.64,0,0,1-.14.21.5.5,0,0,1-.36.11h-.93a.37.37,0,0,1-.25-.1.33.33,0,0,1-.1-.25.28.28,0,0,1,0-.09l3.17-8.16a.84.84,0,0,1,.18-.33.38.38,0,0,1,.31-.11Zm.71,5.67-1.42-3.68-1.42,3.68Z"/><path class="cls-1" d="M121.3,58.88a3.57,3.57,0,0,1,2.45.75,2.64,2.64,0,0,1,.84,2.08,2.86,2.86,0,0,1-.43,1.6,2.5,2.5,0,0,1-1.27,1l1.78,3.19a.27.27,0,0,1,0,.14.29.29,0,0,1-.09.21.28.28,0,0,1-.2.08h-1.09a.51.51,0,0,1-.38-.12.85.85,0,0,1-.18-.23l-1.69-3h-1.72v3a.34.34,0,0,1-.35.35h-1a.34.34,0,0,1-.35-.35V59.23a.34.34,0,0,1,.35-.35ZM119.36,63h1.87a2.35,2.35,0,0,0,1.18-.26,1,1,0,0,0,.44-1,1,1,0,0,0-.44-1,2.35,2.35,0,0,0-1.18-.25h-1.87Z"/><path class="cls-1" d="M140.36,67.38a.23.23,0,0,1,.08.11.45.45,0,0,1,0,.08.34.34,0,0,1-.11.25.33.33,0,0,1-.24.1h-1.23a.6.6,0,0,1-.41-.14,1.18,1.18,0,0,1-.18-.16l-3-3.42v3.37a.37.37,0,0,1-.1.25.33.33,0,0,1-.25.1h-1.05a.33.33,0,0,1-.24-.1.33.33,0,0,1-.1-.25V59.23a.33.33,0,0,1,.1-.25.33.33,0,0,1,.24-.1h1.05a.33.33,0,0,1,.25.1.37.37,0,0,1,.1.25v3l2.82-3.1a1.17,1.17,0,0,1,.24-.21.69.69,0,0,1,.34-.07h1.19a.33.33,0,0,1,.24.1.33.33,0,0,1,.1.25.3.3,0,0,1-.07.19l-3.48,3.78Z"/><path class="cls-1" d="M154.87,66.3a.34.34,0,0,1,.25.11.33.33,0,0,1,.1.24v.92a.34.34,0,0,1-.35.35H149.2a.31.31,0,0,1-.24-.1.34.34,0,0,1-.11-.25V59.23A.34.34,0,0,1,149,59a.31.31,0,0,1,.24-.1h5.57a.33.33,0,0,1,.24.1.34.34,0,0,1,.11.25v.91a.34.34,0,0,1-.11.25.33.33,0,0,1-.24.1H150.6v2.06h3.88a.33.33,0,0,1,.25.1.33.33,0,0,1,.1.24v.92a.34.34,0,0,1-.35.35H150.6V66.3Z"/><path class="cls-1" d="M170.08,58.88a.33.33,0,0,1,.24.1.34.34,0,0,1,.11.25v.91a.34.34,0,0,1-.11.25.33.33,0,0,1-.24.1h-2.33v7.08a.34.34,0,0,1-.35.35h-1a.34.34,0,0,1-.35-.35V60.49h-2.33a.33.33,0,0,1-.24-.1.34.34,0,0,1-.11-.25v-.91a.34.34,0,0,1,.11-.25.33.33,0,0,1,.24-.1Z"/><path class="cls-1" d="M179.3,67.92a.37.37,0,0,1-.25-.1.33.33,0,0,1-.1-.25V59.23a.34.34,0,0,1,.35-.35h1a.33.33,0,0,1,.24.1.33.33,0,0,1,.1.25v8.34a.33.33,0,0,1-.1.25.37.37,0,0,1-.24.1Z"/><path class="cls-1" d="M195.81,67.92a.45.45,0,0,1-.34-.12,1.31,1.31,0,0,1-.17-.18l-3.61-5.37v5.32a.34.34,0,0,1-.11.25.35.35,0,0,1-.24.1h-1.05a.37.37,0,0,1-.24-.1.34.34,0,0,1-.11-.25V59.23a.34.34,0,0,1,.11-.25.33.33,0,0,1,.24-.1h.91a.49.49,0,0,1,.33.11l.17.18,3.62,5.38V59.23a.34.34,0,0,1,.35-.35h1a.34.34,0,0,1,.35.35v8.34a.33.33,0,0,1-.1.25.37.37,0,0,1-.25.1Z"/><path class="cls-1" d="M206,62.22a4,4,0,0,1,.28-1.41,3,3,0,0,1,.75-1.1,3.37,3.37,0,0,1,1.21-.71,5,5,0,0,1,1.67-.25,4.88,4.88,0,0,1,1.85.29,3.46,3.46,0,0,1,1.17.7,2.27,2.27,0,0,1,.6.84,2.59,2.59,0,0,1,.21.73.33.33,0,0,1-.1.25.38.38,0,0,1-.25.09h-1a.35.35,0,0,1-.23-.07.44.44,0,0,1-.12-.15l-.13-.22a1.47,1.47,0,0,0-.35-.36,2.31,2.31,0,0,0-.63-.34,2.71,2.71,0,0,0-1-.15,2.24,2.24,0,0,0-1.55.53,1.89,1.89,0,0,0-.62,1.4c0,.32,0,.67,0,1.05s0,.73,0,1a2,2,0,0,0,.62,1.56,2.37,2.37,0,0,0,1.55.48,3.49,3.49,0,0,0,.88-.1,1.72,1.72,0,0,0,.69-.34,1.5,1.5,0,0,0,.45-.61,2.33,2.33,0,0,0,.16-.94v-.1h-1.57a.34.34,0,0,1-.35-.35v-.91a.34.34,0,0,1,.35-.35h3a.35.35,0,0,1,.25.1.37.37,0,0,1,.1.25V64.5a3.85,3.85,0,0,1-.25,1.42,3.06,3.06,0,0,1-.73,1.13,3.41,3.41,0,0,1-1.23.73,5,5,0,0,1-1.72.27,5.11,5.11,0,0,1-1.7-.26,3.22,3.22,0,0,1-1.21-.72,3.29,3.29,0,0,1-.73-1.12,4.38,4.38,0,0,1-.27-1.43c0-.16,0-.34,0-.54s0-.4,0-.61,0-.41,0-.6,0-.38,0-.55"/><rect class="cls-1" x="27.96" y="28.89" width="22.57" height="34.13" transform="matrix(0, -1, 1, 0, -6.88, 85)"/><path class="cls-2" d="M45.84,67.46a10.63,10.63,0,0,1-5.79-1.66,10.33,10.33,0,0,1-4.22-5.62,13.47,13.47,0,0,1-5.51,1.26,11.57,11.57,0,0,1-3.4-.53C24,60,22.14,58.39,21.27,56.16a7,7,0,0,1-.46-3A33.78,33.78,0,0,1,10.26,54.8h-.15a25.52,25.52,0,0,1-3.42-.21,2.68,2.68,0,0,1-2.06-1.53A35.34,35.34,0,0,1,2,37.86c.15-4.38,3.08-10.35,5-13.78L7.51,6a3.4,3.4,0,0,1,5.74-2.39l3.94,3.73a27.94,27.94,0,0,0,11.09,6.43l8.26-.11c5.53-.07,10.75-.14,16.57-3.9L60.2,3A3.38,3.38,0,0,1,62.55,2,3.39,3.39,0,0,1,66,5.33l.5,18.17c2,3.37,5.11,9.21,5.17,13.59.18,14.2-2,16.49-4.34,16.74a29.48,29.48,0,0,1-4.31.29h-.16a33,33,0,0,1-3.73-.22,15.35,15.35,0,0,1-.58,4,13.47,13.47,0,0,1-12.67,9.61M27.67,49.72a3.41,3.41,0,0,1,0,3.4,1.23,1.23,0,0,0-.11.57,2.81,2.81,0,0,0,1.38.73,4.23,4.23,0,0,0,1.34.21,7.25,7.25,0,0,0,3.41-1l0-1.9a5.54,5.54,0,0,1-2.1-4.27,4.19,4.19,0,0,1,.15-1.26,25.64,25.64,0,0,1-4.1,3.53m12.92,3.87a6.44,6.44,0,0,0,3,.86,4.16,4.16,0,0,0,1.4-.24,6.94,6.94,0,0,0,1.27-.57,2.32,2.32,0,0,0,.42-1.06,3.2,3.2,0,0,1-.07-1.11,8.4,8.4,0,0,0-1.18-2.62,24.4,24.4,0,0,1-2.82-2.35,4.93,4.93,0,0,1,.09.81,5.54,5.54,0,0,1-2.16,4.46ZM36.87,37.75a27.92,27.92,0,0,1-3.5,6.54,4.51,4.51,0,0,1,2-.37l.84,0L37,44h.11c.34,0,.66,0,1,0s.73-.05,1.06-.05a4.45,4.45,0,0,1,1.27.16,28.76,28.76,0,0,1-3.54-6.28"/><path class="cls-1" d="M62.55,4a1.4,1.4,0,0,1,.53.11,1.36,1.36,0,0,1,.86,1.24l.52,18.71c1.7,2.77,5.1,8.83,5.15,13,.12,9.34-.79,14.55-2.58,14.71a26.42,26.42,0,0,1-4.05.28h-.15a32.08,32.08,0,0,1-6-.6A11.45,11.45,0,0,1,45.84,65.44a8.68,8.68,0,0,1-4.7-1.33,9.24,9.24,0,0,1-3.91-6.94l0,0a12.75,12.75,0,0,1-6.86,2.29h0A9,9,0,0,1,27.53,59c-2.27-.73-3.75-1.92-4.39-3.56a5.74,5.74,0,0,1,.4-4.66,1.39,1.39,0,0,1,1.89-.52A1.39,1.39,0,0,1,26,52.14a3,3,0,0,0-.22,2.29,3.82,3.82,0,0,0,2.64,1.91,6.38,6.38,0,0,0,1.95.3,10,10,0,0,0,5.44-1.91l-.05-4.13a3.55,3.55,0,0,1-2.09-3.18c0-1.28.67-1.49,1.69-1.49.5,0,1.07,0,1.69,0h.14c.74,0,1.42-.1,2-.1.93,0,1.55.24,1.56,1.45a3.53,3.53,0,0,1-2.17,3.31l0,4.08a9.2,9.2,0,0,0,5,1.74,6.35,6.35,0,0,0,2.06-.34,7.85,7.85,0,0,0,2-1,4.34,4.34,0,0,0,1.07-2.8,1.33,1.33,0,0,1,0-.88,10.17,10.17,0,0,0-1.76-4,23.25,23.25,0,0,1-3.61-3.08c-3.62-3.8-5.56-9.46-6.52-13.29-.86,3.85-2.66,9.56-6.2,13.45C24,51.71,15,52.79,10.26,52.79h-.14A25.48,25.48,0,0,1,7,52.6a.7.7,0,0,1-.53-.4,33.33,33.33,0,0,1-2.4-14.27c.15-4.27,3.45-10.59,5-13.3l.5-18.58A1.38,1.38,0,0,1,10.91,4.7a1.36,1.36,0,0,1,.95.38l4,3.72a29.7,29.7,0,0,0,12.19,7l8.56-.11h0c6.1-.08,11.57-.24,17.8-4.33l7.22-6.92a1.42,1.42,0,0,1,1-.39m0-4A5.42,5.42,0,0,0,58.8,1.51L51.86,8.17c-5.26,3.33-9.93,3.4-15.31,3.47h0l-7.94.1a25.78,25.78,0,0,1-10-5.87L14.63,2.15A5.37,5.37,0,0,0,10.91.67,5.41,5.41,0,0,0,5.49,5.94L5,23.53C2.72,27.75.18,33.36,0,37.79A37.37,37.37,0,0,0,2.8,53.92a4.74,4.74,0,0,0,3.61,2.67,30,30,0,0,0,3.69.23h.16A36.55,36.55,0,0,0,19,55.75a8.34,8.34,0,0,0,.36,1.14c.76,2,2.57,4.55,6.92,5.94a12.84,12.84,0,0,0,4,.62h.06a14.86,14.86,0,0,0,4.4-.69A12,12,0,0,0,39,67.5a12.75,12.75,0,0,0,6.88,2A15.34,15.34,0,0,0,60.46,58.38a20.07,20.07,0,0,0,.48-2.3c.62,0,1.25.06,1.87.06H63a31.76,31.76,0,0,0,4.58-.31c4.27-.51,5.16-5.54,5.45-7.21a66.76,66.76,0,0,0,.64-11.55c-.06-4.48-2.74-10-5.19-14.15L68,5.27A5.43,5.43,0,0,0,62.55,0M30.07,50.46l.14-.11a7.92,7.92,0,0,0,1.31,2.06,4,4,0,0,1-1.19.2h-.28a5.51,5.51,0,0,0,0-2.14m12.81,1.88a7.65,7.65,0,0,0,1.2-1.87,5.8,5.8,0,0,1,.52,1.2c0,.18,0,.36,0,.54l-.27.1a2.19,2.19,0,0,1-.73.12,3,3,0,0,1-.73-.09"/><path class="cls-1" d="M27.93,33.82a7,7,0,1,1-7.07-6.89,7,7,0,0,1,7.07,6.89"/><path class="cls-1" d="M45.77,33.59a7,7,0,1,1,7.08,6.9,7,7,0,0,1-7.08-6.9"/><path class="cls-2" d="M22.4,33.84C22.39,36.7,21.76,39,21,39s-1.36-2.32-1.35-5.18.64-5.17,1.39-5.17S22.41,31,22.4,33.84"/><path class="cls-2" d="M54.13,34c0,2.86-.64,5.18-1.4,5.17S51.38,36.83,51.39,34,52,28.8,52.78,28.8s1.36,2.33,1.35,5.18"/></g></g></svg>