<svg xmlns="http://www.w3.org/2000/svg" viewBox="0 0 364.63 116.76"><defs><style>.cls-1{fill:#fff;}.cls-2{fill:#e6204e;}</style></defs><title>FlyngcatRecurso 1</title><g id="Capa_2" data-name="Capa 2"><g id="Capa_1-2" data-name="Capa 1"><path class="cls-1" d="M152.55,43.62h-8.84a2.14,2.14,0,0,1-1.56-.49,2.1,2.1,0,0,1-.49-1.56V4.63a2.14,2.14,0,0,1,.49-1.57,2.14,2.14,0,0,1,1.56-.48h25.43a2.16,2.16,0,0,1,1.56.48,2.19,2.19,0,0,1,.49,1.57v6.78A2.15,2.15,0,0,1,170.7,13a2.11,2.11,0,0,1-1.56.48H154.6v5.93h9.92a2.14,2.14,0,0,1,1.56.49,2.11,2.11,0,0,1,.49,1.57v6.83a2.11,2.11,0,0,1-.49,1.57,2.14,2.14,0,0,1-1.56.48H154.6V41.57a2.14,2.14,0,0,1-.48,1.56,2.19,2.19,0,0,1-1.57.49"/><path class="cls-1" d="M208,43.62h-29a2.18,2.18,0,0,1-1.56-.49,2.14,2.14,0,0,1-.49-1.56V4.63a2.19,2.19,0,0,1,.49-1.57,2.17,2.17,0,0,1,1.56-.48h8.84a2.15,2.15,0,0,1,1.57.48,2.19,2.19,0,0,1,.48,1.57V32.84h7.81V23.61a2.14,2.14,0,0,1,.49-1.57,2.13,2.13,0,0,1,1.56-.48H208a2.19,2.19,0,0,1,1.57.48,2.19,2.19,0,0,1,.48,1.57v18a2.14,2.14,0,0,1-.48,1.56,2.19,2.19,0,0,1-1.57.49"/><path class="cls-1" d="M234.45,43.62h-9.23a2.19,2.19,0,0,1-1.57-.49,2.14,2.14,0,0,1-.48-1.56v-7.3l-8.72-11.68a11.45,11.45,0,0,1-1.74-3.08,13.39,13.39,0,0,1-.43-3.93V4.63a2.23,2.23,0,0,1,.48-1.57,2.19,2.19,0,0,1,1.57-.48h8.78a2.19,2.19,0,0,1,1.57.48,2.19,2.19,0,0,1,.48,1.57V14c0,.39,0,.79.06,1.21a2.57,2.57,0,0,0,.45,1.2l2.63,4.1a2.48,2.48,0,0,0,.59.74,1.41,1.41,0,0,0,.78.23h.57a1.32,1.32,0,0,0,.76-.23,2.35,2.35,0,0,0,.6-.74l2.62-4.1a2.48,2.48,0,0,0,.46-1.2c0-.42.06-.82.06-1.21V4.63a2.14,2.14,0,0,1,.49-1.57,2.11,2.11,0,0,1,1.56-.48h8.49a2.19,2.19,0,0,1,1.57.48,2.19,2.19,0,0,1,.49,1.57v11a12.88,12.88,0,0,1-.46,3.93,13.2,13.2,0,0,1-1.72,3.08L236.5,34.32v7.25a1.76,1.76,0,0,1-2.05,2"/><path class="cls-1" d="M255,43.62a2.19,2.19,0,0,1-1.57-.49,2.14,2.14,0,0,1-.48-1.56V34.79A1.76,1.76,0,0,1,255,32.73h5.64V13.58H255a2.19,2.19,0,0,1-1.57-.48,2.2,2.2,0,0,1-.48-1.58V4.63a2.19,2.19,0,0,1,.48-1.57A2.19,2.19,0,0,1,255,2.58h24.28a2.19,2.19,0,0,1,1.57.48,2.19,2.19,0,0,1,.48,1.57v6.89a2.2,2.2,0,0,1-.48,1.58,2.19,2.19,0,0,1-1.57.48h-5.53V32.73h5.53a1.76,1.76,0,0,1,2.05,2.06v6.78a2.14,2.14,0,0,1-.48,1.56,2.19,2.19,0,0,1-1.57.49Z"/><path class="cls-1" d="M298.92,43.62h-8.56a2.14,2.14,0,0,1-1.56-.49,2.1,2.1,0,0,1-.49-1.56V4.63a2.14,2.14,0,0,1,.49-1.57,2.14,2.14,0,0,1,1.56-.48h5.94a4.48,4.48,0,0,1,1.84.34,4.6,4.6,0,0,1,1.52,1.2l11.06,12.65V4.63a2.14,2.14,0,0,1,.48-1.57,2.15,2.15,0,0,1,1.57-.48h8.54a2.15,2.15,0,0,1,1.57.48,2.19,2.19,0,0,1,.48,1.57V41.57a1.76,1.76,0,0,1-2.05,2h-8.54a2.15,2.15,0,0,1-1.57-.49,2.1,2.1,0,0,1-.48-1.56v-7L301,22.76V41.57a1.76,1.76,0,0,1-2.05,2"/><path class="cls-1" d="M362.58,43.62H344.63c-4.76,0-8.28-1-10.57-2.85S330.6,35.94,330.6,32V14.2q0-5.91,3.46-8.77t10.57-2.85h14.25a2.16,2.16,0,0,1,1.56.48,2.14,2.14,0,0,1,.49,1.57v6.89a2.15,2.15,0,0,1-.49,1.58,2.16,2.16,0,0,1-1.56.48H347a4.06,4.06,0,0,0-2.62.71,2.62,2.62,0,0,0-.86,2.14V30.05a3,3,0,0,0,.66,2.11,2.64,2.64,0,0,0,2,.68h5.52V24a2.14,2.14,0,0,1,.49-1.57,2.16,2.16,0,0,1,1.56-.48h8.84a2.11,2.11,0,0,1,1.56.48,2.14,2.14,0,0,1,.49,1.57V41.57a1.77,1.77,0,0,1-2.05,2"/><path class="cls-1" d="M167.57,90.36H153.66q-7.12,0-10.57-2.85t-3.46-8.78V61q0-5.91,3.46-8.8c2.29-1.91,5.82-2.88,10.57-2.88h13.91a2.19,2.19,0,0,1,1.56.48,2.15,2.15,0,0,1,.49,1.58v6.89a2.14,2.14,0,0,1-.49,1.57,2.1,2.1,0,0,1-1.56.48H156.11a4,4,0,0,0-2.62.72,2.6,2.6,0,0,0-.86,2.13V76.74a2.46,2.46,0,0,0,.86,2.08,4.29,4.29,0,0,0,2.62.65h11.46a2.1,2.1,0,0,1,1.56.49,2.13,2.13,0,0,1,.49,1.57v6.78a1.77,1.77,0,0,1-2.05,2"/><path class="cls-1" d="M187.69,88.31a1.76,1.76,0,0,1-2.05,2h-8.39a2.14,2.14,0,0,1-1.56-.48,2.19,2.19,0,0,1-.49-1.57v-15a16.55,16.55,0,0,1,.55-3.94,43.44,43.44,0,0,1,1.68-5.18l5-12.94a2.74,2.74,0,0,1,1.05-1.42,3.33,3.33,0,0,1,1.86-.46h15.33a3.2,3.2,0,0,1,1.79.46,2.75,2.75,0,0,1,1.06,1.42l5,12.94a45.61,45.61,0,0,1,1.69,5.18,17,17,0,0,1,.54,3.94v15a2.19,2.19,0,0,1-.49,1.57,2.14,2.14,0,0,1-1.56.48H200a2.48,2.48,0,0,1-1.68-.48,2,2,0,0,1-.55-1.57v-8H187.69Zm3.25-27L188.26,70h8.94l-2.67-8.67a2.11,2.11,0,0,0-.49-.74.88.88,0,0,0-.6-.23H192a.9.9,0,0,0-.6.23,2.1,2.1,0,0,0-.48.74"/><path class="cls-1" d="M234.77,90.36h-9.24a1.77,1.77,0,0,1-2.05-2v-28H215.1a2.14,2.14,0,0,1-1.57-.48,2.19,2.19,0,0,1-.48-1.57V51.38a2.2,2.2,0,0,1,.48-1.58,2.23,2.23,0,0,1,1.57-.48h30.09a2.2,2.2,0,0,1,1.57.48,2.15,2.15,0,0,1,.49,1.58v6.89a2.14,2.14,0,0,1-.49,1.57,2.11,2.11,0,0,1-1.57.48h-8.37v28a2.14,2.14,0,0,1-.49,1.56,2.1,2.1,0,0,1-1.56.49"/><path class="cls-1" d="M147.57,106.7l4.12-7.16.3-.35a.8.8,0,0,1,.64-.24h1.47a.59.59,0,0,1,.42.18.57.57,0,0,1,.17.41v14a.59.59,0,0,1-.17.42.63.63,0,0,1-.42.17h-1.76a.57.57,0,0,1-.41-.17.59.59,0,0,1-.17-.42v-8.49L148.93,110a2.19,2.19,0,0,1-.3.36.71.71,0,0,1-.5.18H147a.72.72,0,0,1-.51-.18,2.19,2.19,0,0,1-.3-.36l-2.82-4.89v8.49a.56.56,0,0,1-.18.42.57.57,0,0,1-.41.17H141a.58.58,0,0,1-.41-.17.55.55,0,0,1-.17-.42v-14a.53.53,0,0,1,.17-.41A.55.55,0,0,1,141,99h1.48a.8.8,0,0,1,.64.24l.29.35Z"/><path class="cls-1" d="M177.37,99a.67.67,0,0,1,.52.19,1.35,1.35,0,0,1,.31.55l5.32,13.73a.52.52,0,0,1,0,.14.54.54,0,0,1-.18.42.56.56,0,0,1-.4.17h-1.57a.84.84,0,0,1-.61-.18,1.14,1.14,0,0,1-.23-.36l-.94-2.42h-6.86l-.94,2.42a1.14,1.14,0,0,1-.23.36.84.84,0,0,1-.61.18h-1.56A.57.57,0,0,1,169,114a.58.58,0,0,1-.18-.42.52.52,0,0,1,0-.14l5.32-13.73a1.47,1.47,0,0,1,.31-.55A.67.67,0,0,1,175,99Zm1.2,9.53-2.39-6.18-2.39,6.18Z"/><path class="cls-1" d="M203.86,99a6,6,0,0,1,4.13,1.26,4.49,4.49,0,0,1,1.41,3.5,4.8,4.8,0,0,1-.73,2.7,4.25,4.25,0,0,1-2.14,1.66l3,5.36a.47.47,0,0,1,.06.24.48.48,0,0,1-.47.48h-1.85a.91.91,0,0,1-.64-.2,1.3,1.3,0,0,1-.29-.39l-2.84-5.06h-2.89v5.06a.59.59,0,0,1-.17.42.63.63,0,0,1-.42.17h-1.76a.57.57,0,0,1-.41-.17.55.55,0,0,1-.17-.42v-14a.53.53,0,0,1,.17-.41.54.54,0,0,1,.41-.18Zm-3.25,6.84h3.15a3.86,3.86,0,0,0,2-.43,1.76,1.76,0,0,0,.74-1.65,1.7,1.7,0,0,0-.74-1.63,4,4,0,0,0-2-.42h-3.15Z"/><path class="cls-1" d="M235.91,113.24a.58.58,0,0,1,.13.19,1.05,1.05,0,0,1,0,.13.6.6,0,0,1-.58.59h-2.07a1,1,0,0,1-.69-.23c-.17-.15-.28-.24-.3-.27l-5.11-5.75v5.66a.6.6,0,0,1-.58.59H225a.61.61,0,0,1-.42-.17.59.59,0,0,1-.17-.42v-14a.57.57,0,0,1,.17-.41A.58.58,0,0,1,225,99h1.76a.53.53,0,0,1,.4.18.54.54,0,0,1,.18.41v5.1L232,99.43a2,2,0,0,1,.42-.35A1,1,0,0,1,233,99h2a.57.57,0,0,1,.41.18.54.54,0,0,1,.18.41.58.58,0,0,1-.13.33l-5.85,6.35Z"/><path class="cls-1" d="M260.29,111.44a.58.58,0,0,1,.58.58v1.54a.57.57,0,0,1-.17.42.58.58,0,0,1-.41.17h-9.53a.63.63,0,0,1-.42-.17.61.61,0,0,1-.17-.42v-14a.61.61,0,0,1,.17-.42.63.63,0,0,1,.42-.17h9.36a.56.56,0,0,1,.4.17.54.54,0,0,1,.18.42v1.54a.51.51,0,0,1-.18.41.53.53,0,0,1-.4.18h-7v3.45h6.54a.58.58,0,0,1,.41.17.54.54,0,0,1,.17.42v1.53a.55.55,0,0,1-.17.42.58.58,0,0,1-.41.17H253.1v3.61Z"/><path class="cls-1" d="M285.84,99a.59.59,0,0,1,.42.17.61.61,0,0,1,.17.42v1.54a.57.57,0,0,1-.17.41.59.59,0,0,1-.42.17h-3.9v11.9a.58.58,0,0,1-.18.42.58.58,0,0,1-.41.17h-1.76a.58.58,0,0,1-.58-.59v-11.9H275.1a.57.57,0,0,1-.41-.17.54.54,0,0,1-.18-.41V99.54a.58.58,0,0,1,.18-.42.57.57,0,0,1,.41-.17Z"/><path class="cls-1" d="M301.34,114.15a.58.58,0,0,1-.41-.17.59.59,0,0,1-.17-.42v-14a.57.57,0,0,1,.17-.41.55.55,0,0,1,.41-.18h1.76a.56.56,0,0,1,.42.18.57.57,0,0,1,.17.41v14a.58.58,0,0,1-.59.59Z"/><path class="cls-1" d="M329.09,114.15a.77.77,0,0,1-.56-.2,3.64,3.64,0,0,1-.29-.3l-6.08-9v8.94a.55.55,0,0,1-.17.42.57.57,0,0,1-.41.17h-1.76a.63.63,0,0,1-.42-.17.59.59,0,0,1-.17-.42v-14a.57.57,0,0,1,.17-.41.59.59,0,0,1,.42-.18h1.52a.75.75,0,0,1,.56.2l.29.3,6.08,9V99.54a.53.53,0,0,1,.17-.41.54.54,0,0,1,.41-.18h1.76a.55.55,0,0,1,.41.18.54.54,0,0,1,.18.41v14a.56.56,0,0,1-.18.42.58.58,0,0,1-.41.17Z"/><path class="cls-1" d="M346.2,104.57a6.63,6.63,0,0,1,.48-2.37,5.05,5.05,0,0,1,1.25-1.85,5.86,5.86,0,0,1,2-1.2,8.77,8.77,0,0,1,2.8-.42,8.37,8.37,0,0,1,3.12.49,6.05,6.05,0,0,1,1.95,1.18,3.94,3.94,0,0,1,1,1.41,4.2,4.2,0,0,1,.33,1.23.47.47,0,0,1-.16.42.61.61,0,0,1-.42.16h-1.76a.58.58,0,0,1-.38-.12.68.68,0,0,1-.21-.25l-.22-.38a2.76,2.76,0,0,0-.59-.61,3.87,3.87,0,0,0-1.06-.56,4.47,4.47,0,0,0-1.63-.25,3.72,3.72,0,0,0-2.6.88,3.19,3.19,0,0,0-1,2.35c0,.55,0,1.14,0,1.78s0,1.22,0,1.76a3.37,3.37,0,0,0,1,2.62,4,4,0,0,0,2.6.82,5.8,5.8,0,0,0,1.49-.18,3.09,3.09,0,0,0,1.15-.56,2.72,2.72,0,0,0,.77-1,4.22,4.22,0,0,0,.26-1.57v-.18H353.8a.61.61,0,0,1-.42-.17.57.57,0,0,1-.17-.41V106a.58.58,0,0,1,.59-.59h5a.58.58,0,0,1,.58.59v2.38a6.65,6.65,0,0,1-.41,2.4,4.92,4.92,0,0,1-1.23,1.89,5.61,5.61,0,0,1-2.07,1.24,9.51,9.51,0,0,1-5.75,0,5.57,5.57,0,0,1-2-1.22,5.21,5.21,0,0,1-1.23-1.87,7.37,7.37,0,0,1-.46-2.4c0-.28,0-.58,0-.91s0-.68,0-1,0-.68,0-1,0-.64,0-.92"/><polygon class="cls-1" points="94.56 96.33 37.2 96.08 37.36 58.14 94.73 58.4 94.56 96.33"/><path class="cls-2" d="M77.05,113.37a18.1,18.1,0,0,1-9.74-2.77,17.49,17.49,0,0,1-7.09-9.45A22.9,22.9,0,0,1,51,103.26a19,19,0,0,1-5.72-.89c-4.82-1.55-8-4.23-9.49-8A11.64,11.64,0,0,1,35,89.29a56.43,56.43,0,0,1-17.74,2.82,46.54,46.54,0,0,1-6-.36,4.49,4.49,0,0,1-3.46-2.57c-.52-1.09-4.87-10.91-4.36-25.55.25-7.37,5.17-17.39,8.38-23.17l.81-30.39A5.69,5.69,0,0,1,16.14,5a5.53,5.53,0,0,1,2.19-.44,5.71,5.71,0,0,1,3.94,1.56l6.64,6.26A46.81,46.81,0,0,0,47.54,23.14L61.41,23c9.36-.12,18.22-.25,28.11-6.73L101.17,5a5.68,5.68,0,0,1,4-1.59,5.56,5.56,0,0,1,2.17.43,5.75,5.75,0,0,1,3.56,5.11l.84,30.57c3.41,5.67,8.6,15.49,8.69,22.83C120.7,86.48,117,90.14,113,90.48a44.41,44.41,0,0,1-7.13.49,62.13,62.13,0,0,1-6.52-.38,26.19,26.19,0,0,1-1,6.63,22.63,22.63,0,0,1-21.29,16.15M46.51,83.57a5.74,5.74,0,0,1,.08,5.7,2,2,0,0,0-.18,1,4.61,4.61,0,0,0,2.31,1.23A7.35,7.35,0,0,0,51,91.8a12.33,12.33,0,0,0,5.75-1.68l0-3.19a9.37,9.37,0,0,1-3.54-7.19,7.37,7.37,0,0,1,.26-2.1,43.25,43.25,0,0,1-6.89,5.93m21.7,6.49a11,11,0,0,0,5.09,1.45,7.14,7.14,0,0,0,2.34-.39,11.27,11.27,0,0,0,2.13-1,3.74,3.74,0,0,0,.72-1.78,5.82,5.82,0,0,1-.12-1.86,14.38,14.38,0,0,0-2-4.42,41.82,41.82,0,0,1-4.75-3.93,6.54,6.54,0,0,1,.15,1.36A9.27,9.27,0,0,1,68.17,87ZM62,63.44a47.55,47.55,0,0,1-5.88,11,7.68,7.68,0,0,1,3.28-.62l2.82.09c.77,0,1.31,0,1.82-.09s1.23-.07,1.77-.07a8,8,0,0,1,2.13.26A48.78,48.78,0,0,1,62,63.44"/><path class="cls-1" d="M105.13,6.77A2.32,2.32,0,0,1,106,7,2.35,2.35,0,0,1,107.47,9l.87,31.44c2.84,4.67,8.57,14.85,8.66,21.9.2,15.7-1.34,24.47-4.34,24.73a46.09,46.09,0,0,1-6.82.46h-.24a53.08,53.08,0,0,1-10.16-1,18.71,18.71,0,0,1-.37,9.76C92.85,104.48,84.79,110,77,110a14.56,14.56,0,0,1-7.9-2.25c-4.84-3.09-6.2-8.36-6.56-11.66L62.49,96A21.43,21.43,0,0,1,51,99.86h-.08a15.26,15.26,0,0,1-4.62-.72c-3.82-1.21-6.3-3.23-7.37-6a9.71,9.71,0,0,1,.66-7.83,2.33,2.33,0,0,1,2-1.18,2.25,2.25,0,0,1,1.16.31,2.32,2.32,0,0,1,.87,3.16,5.15,5.15,0,0,0-.36,3.87c.54,1.36,2,2.44,4.43,3.21a10.88,10.88,0,0,0,3.28.49A16.93,16.93,0,0,0,60.12,92L60,85a6,6,0,0,1-3.51-5.34c0-2.15,1.13-2.5,2.84-2.5.83,0,1.8.08,2.84.08h.23c1.25,0,2.4-.16,3.35-.16,1.56,0,2.59.39,2.63,2.43a6,6,0,0,1-3.65,5.56L64.84,92a15.46,15.46,0,0,0,8.45,2.93,10.47,10.47,0,0,0,3.46-.58,13,13,0,0,0,3.34-1.64A7.29,7.29,0,0,0,81.9,88a2.36,2.36,0,0,1-.09-1.48,17.09,17.09,0,0,0-3-6.79,39.6,39.6,0,0,1-6.06-5.18c-6.1-6.39-9.36-15.9-11-22.34-1.45,6.48-4.47,16.07-10.42,22.61-11,12.12-26.13,13.93-34.16,13.93H17a38.77,38.77,0,0,1-5.26-.31,1.21,1.21,0,0,1-.9-.66c-.18-.39-4.52-9.8-4-24C7.06,56.57,12.6,46,15.16,41.39L16,10.17a2.34,2.34,0,0,1,3.94-1.64l6.63,6.27A49.87,49.87,0,0,0,47.06,26.52l14.39-.17h0c10.25-.14,19.44-.42,29.9-7.29L103.52,7.42a2.34,2.34,0,0,1,1.61-.65m0-6.77a9.14,9.14,0,0,0-6.3,2.52L87.15,13.72c-8.85,5.63-16.7,5.72-25.77,5.85L48,19.74A43.63,43.63,0,0,1,31.22,9.87L24.6,3.61a9.09,9.09,0,0,0-6.26-2.49,8.84,8.84,0,0,0-3.49.7A9.1,9.1,0,0,0,9.23,10l-.8,29.58C4.57,46.64.3,56.07,0,63.51c-.53,15.54,4.13,26,4.67,27.11a7.9,7.9,0,0,0,6.07,4.48,43.88,43.88,0,0,0,6.2.39,62,62,0,0,0,15-1.81,14.47,14.47,0,0,0,.61,1.94c1.27,3.26,4.32,7.65,11.62,10a21.75,21.75,0,0,0,6.65,1,25.28,25.28,0,0,0,7.48-1.17,20.27,20.27,0,0,0,7.15,8A21.32,21.32,0,0,0,77,116.76a25.77,25.77,0,0,0,24.57-18.65,33,33,0,0,0,.8-3.85c1,0,2.1.09,3.16.09h0a54,54,0,0,0,8-.52c8.84-1,10.47-12.84,10.24-31.54-.1-7.51-4.6-16.8-8.72-23.77l-.82-29.66A9.11,9.11,0,0,0,105.13,0M50.54,84.8l.24-.18A12.7,12.7,0,0,0,53,88.08a6.89,6.89,0,0,1-2,.34l-.46,0a8.91,8.91,0,0,0,0-3.6M72.07,88a12.63,12.63,0,0,0,2-3.14,9.72,9.72,0,0,1,.87,2,7.23,7.23,0,0,0,0,.93l-.45.17a3.88,3.88,0,0,1-1.24.2A5.58,5.58,0,0,1,72.07,88"/><path class="cls-1" d="M46.94,56.85A11.74,11.74,0,1,1,35.05,45.26,11.74,11.74,0,0,1,46.94,56.85"/><path class="cls-1" d="M76.93,56.46A11.74,11.74,0,1,1,88.82,68.05,11.74,11.74,0,0,1,76.93,56.46"/><path class="cls-2" d="M37.64,56.88c0,4.8-1.06,8.69-2.33,8.69S33,61.66,33.05,56.85s1.06-8.69,2.33-8.68,2.29,3.91,2.26,8.71"/><path class="cls-2" d="M91,57.11c0,4.81-1.07,8.7-2.34,8.7s-2.29-3.91-2.26-8.72,1.06-8.69,2.33-8.68S91,52.31,91,57.11"/></g></g></svg>