<svg xmlns="http://www.w3.org/2000/svg" viewBox="0 0 206.96 465.23"><defs><style>.cls-1{fill:#fff;}.cls-2,.cls-3,.cls-5,.cls-7{fill:none;stroke:#010101;stroke-linecap:round;}.cls-2,.cls-7{stroke-miterlimit:10;}.cls-2,.cls-5{stroke-width:1.24px;}.cls-3,.cls-5{stroke-linejoin:round;}.cls-3,.cls-7{stroke-width:1.36px;}.cls-4{fill:#d9d97a;}.cls-6{fill:#010101;}</style></defs><title>paracaidasRecurso 1</title><g id="Capa_2" data-name="Capa 2"><g id="Capa_1-2" data-name="Capa 1"><path class="cls-1" d="M33.46,354.05a32.84,32.84,0,0,1,0-65.68"/><path class="cls-2" d="M33.46,354.05a32.84,32.84,0,0,1,0-65.68"/><path class="cls-1" d="M148.53,321.21a32.85,32.85,0,1,1-32.84-32.84,32.84,32.84,0,0,1,32.84,32.84"/><path class="cls-3" d="M148.53,321.21a32.85,32.85,0,1,1-32.84-32.84A32.84,32.84,0,0,1,148.53,321.21Z"/><path class="cls-4" d="M53.32,74.26a22.87,22.87,0,1,1,45.73,0c0,.45,0,.9-.07,1.35l5,.12c0-.49-.08-1-.08-1.47a22.87,22.87,0,1,1,45.73,0,23.54,23.54,0,0,1-.15,2.53l2.14,0A75.09,75.09,0,0,0,1.5,73.33l1.47,0a23,23,0,0,1,46,.54c0,.18,0,.36,0,.54l2.58.06,1.79,0c0-.09,0-.19,0-.28"/><polygon class="cls-1" points="121.85 345.36 127.3 327.92 130.41 252.86 24.36 257.88 24.36 413.35 125.86 413.35 125.86 360.61 121.85 345.36"/><path class="cls-1" d="M126.81,423s59.37-5.37,76.87-34.29c7.91-13.1-3-24.58-17.33-8.25-13.47,15.35-45.65,29-61.28,29"/><path class="cls-5" d="M126.81,423s59.37-5.37,76.87-34.29c7.91-13.1-3-24.58-17.33-8.25-13.47,15.35-45.65,29-61.28,29"/><path class="cls-1" d="M24.36,314.41V453.09a11.5,11.5,0,0,0,11.46,11.47h1.27a11.5,11.5,0,0,0,11.47-11.47V413.35h52.31V451a11.5,11.5,0,0,0,11.47,11.46h1.27A11.5,11.5,0,0,0,125.08,451V376.31"/><path class="cls-3" d="M24.36,314.41V453.09a11.5,11.5,0,0,0,11.46,11.47h1.27a11.5,11.5,0,0,0,11.47-11.47V413.35h52.31V451a11.5,11.5,0,0,0,11.47,11.46h1.27A11.5,11.5,0,0,0,125.08,451V376.31"/><path class="cls-6" d="M24.36,310.83s26.48,11.47,26.37,42c-.13,37.79-26.37,49.47-26.37,49.47"/><path class="cls-6" d="M128.14,310.83s-26.48,11.47-26.37,42c.12,37.79,26.37,49.47,26.37,49.47"/><line class="cls-7" x1="74.87" y1="231.13" x2="74.87" y2="148.53"/><path class="cls-4" d="M64.57,257.93c.25,11.42-9.6,20.9-22,21.17s-22.65-8.77-22.9-20.19,9.6-20.91,22-21.18,22.66,8.78,22.9,20.2"/><path class="cls-4" d="M130.81,256.49c.24,11.43-9.61,20.91-22,21.18s-22.65-8.78-22.9-20.2,9.6-20.91,22-21.18,22.66,8.78,22.91,20.2"/><path class="cls-6" d="M142.26,267.88c.05-8.73-6.79-21.48-10.22-27.32l-.33-39A2.9,2.9,0,0,0,130,199a2.86,2.86,0,0,0-3.1.53l-15.32,14.13C98.41,221.87,87,222,74.32,221.93h0l-17.83-.11a61.89,61.89,0,0,1-25.11-15l-8.06-7.92a2.89,2.89,0,0,0-4.92,1.93l-1.77,38.66c-3.29,5.59-10.4,18.61-10.88,27.5-.94,17.57,4.21,29.32,4.43,29.81a1.43,1.43,0,0,0,1.08.84,50.19,50.19,0,0,0,6.52.52c9.88.24,28.89-1.53,43-16.44,7.52-7.95,11.48-19.77,13.43-27.76,1.84,8,5.65,19.88,13,27.93a49.91,49.91,0,0,0,7.39,6.57,20.87,20.87,0,0,1,3.49,8.48,2.84,2.84,0,0,0,.09,1.84,9,9,0,0,1-2.36,5.78,16.39,16.39,0,0,1-4.17,1.95c-6.44,2.1-12.39-1.5-14.7-3.19l0-8.5a7.37,7.37,0,0,0,4.65-6.8c0-4.06-3.27-2.93-7.34-2.95s-7.35-1.2-7.37,2.86a7.35,7.35,0,0,0,4.22,6.7l-.06,8.6c-2.51,1.69-8.94,5.28-15.46,3.06-3-1-4.77-2.38-5.42-4.08a6.37,6.37,0,0,1,.55-4.77,2.89,2.89,0,0,0-5-2.94,12,12,0,0,0-1,9.68c1.26,3.44,4.29,6,9,7.59a19,19,0,0,0,5.71,1c6.28.15,11.69-2.7,14.45-4.48l.11.07c.38,4.1,1.94,10.65,7.86,14.6,11.17,7.46,28.39.11,32.39-13.52a23.28,23.28,0,0,0,.69-12.08,67.63,67.63,0,0,0,12.56,1.49,56.49,56.49,0,0,0,8.76-.42c3.72-.25,5.84-11.07,6-30.53M41,273.82A14.54,14.54,0,1,1,55.6,259.37,14.54,14.54,0,0,1,41,273.82m66.25.42a14.55,14.55,0,1,1,14.63-14.46,14.55,14.55,0,0,1-14.63,14.46"/><path class="cls-6" d="M41.49,248.35c-1.57,0-3,4.75-3.1,10.7s1,10.81,2.59,10.85,3-4.76,3.11-10.71-1-10.81-2.6-10.84"/><path class="cls-6" d="M107.54,249.9c-1.57,0-3,4.76-3.1,10.71s1,10.81,2.59,10.84,3-4.75,3.1-10.71-1-10.8-2.59-10.84"/><path class="cls-2" d="M53.58,322.09c-28.19-.54-45.43-18.45-44.89-46.64"/><path class="cls-2" d="M92.63,322.83c28.2.54,46.1-16.7,46.64-44.89"/><path class="cls-7" d="M1.62,74.65a75.09,75.09,0,0,1,150.13,3.51"/><path class="cls-3" d="M101.71,77a25,25,0,1,1,50,1.17L74.86,154.34"/><path class="cls-3" d="M101.71,77a25,25,0,1,0-50-1.17l23.19,78.52Z"/><path class="cls-3" d="M74.87,154.34,1.62,74.65a25,25,0,0,1,50.05,1.17"/></g></g></svg>