<svg xmlns="http://www.w3.org/2000/svg" viewBox="0 0 280.2 249.73"><defs><style>.cls-1{fill:#fff;}.cls-2{fill:#010101;}.cls-3{fill:#d9d97a;}</style></defs><title>portatilRecurso 2</title><g id="Capa_2" data-name="Capa 2"><g id="Capa_1-2" data-name="Capa 1"><polygon class="cls-1" points="116.57 181.7 110.74 142.87 100.21 123.09 91.61 102.44 167.57 48.87 237.23 114.34 222.4 132.79 215.15 137.76 205.87 146.3 205.87 159.43 186.23 203.08 168.59 221.38 142.07 230.41 106.62 201.3 116.57 181.7"/><polygon class="cls-1" points="225.08 249.06 276.99 214.46 212.8 201.32 153.28 228.32 225.08 249.06"/><path class="cls-2" d="M225.08,249.73a.57.57,0,0,1-.18,0L153.1,229a.67.67,0,0,1-.09-1.25l59.51-27a.64.64,0,0,1,.41-.05l64.19,13.14a.65.65,0,0,1,.52.52.68.68,0,0,1-.28.69l-51.91,34.6a.7.7,0,0,1-.37.11M155.2,228.18,225,248.34l50.32-33.55L212.88,202Z"/><path class="cls-1" d="M122.56,169C145,180.05,128,209.91,128,209.91l-1.07,1.53h15.17a9,9,0,0,1,9,9v1a9,9,0,0,1-9,9H108.46s-40.72,5.38-46-36.12c-2.36-18.6,9.32-44,29-54.05,20-10.19,17.6-7,17.6-7"/><path class="cls-2" d="M104.07,231.28c-6.23,0-17.95-1.11-27.49-8.46-8.2-6.33-13.17-15.9-14.77-28.46-2.28-18,9-44.33,29.38-54.72,17.16-8.74,18-7.77,18.46-7.19a1,1,0,0,1,0,1.19.66.66,0,0,1-.93.14.69.69,0,0,1-.23-.33c-1,.15-4.58,1.22-16.67,7.38C71.89,151,60.91,176.61,63.14,194.2c1.54,12.19,6.34,21.46,14.26,27.56,13.22,10.19,30.79,8,31,8h33.7a8.33,8.33,0,0,0,8.32-8.31v-1a8.33,8.33,0,0,0-8.32-8.32H126.9a.65.65,0,0,1-.59-.35.66.66,0,0,1,0-.69l1.07-1.53c.06-.1,9-15.9,5.12-28.4-1.55-5.08-5-9-10.28-11.57a.66.66,0,0,1-.3-.89.66.66,0,0,1,.89-.3c5.61,2.77,9.3,6.93,11,12.37,4,13.06-4.89,28.84-5.27,29.5l-.37.53h13.89a9.68,9.68,0,0,1,9.65,9.66v1a9.66,9.66,0,0,1-9.65,9.65H108.45a36.86,36.86,0,0,1-4.38.21"/><path class="cls-1" d="M70.65,153.42C52.55,144.05,32.13,109,25.74,83.11,18.93,55.59-.58,62.35.73,82.26c2.9,44,59.77,85.82,59.77,85.82"/><path class="cls-2" d="M60.5,168.75a.73.73,0,0,1-.39-.13C59.54,168.2,3,126.09.07,82.3c-.71-10.73,4.41-17.19,9.84-18S22.65,67.86,26.38,83C32.65,108.29,53,143.56,71,152.83a.66.66,0,1,1-.61,1.18c-8.55-4.42-18.18-14.8-27.12-29.22-8.32-13.44-14.94-28.57-18.14-41.52-2.2-8.89-7.44-18.86-15-17.69C5.29,66.33.74,72.29,1.4,82.21c2.84,43.18,58.93,84.92,59.5,85.33a.67.67,0,0,1,.14.94.68.68,0,0,1-.54.27"/><path class="cls-1" d="M188.69,190.27l19.77,22.6a9.8,9.8,0,0,1-.55,13.8l-.8.74c-8.17,8.05-21-3.45-21-3.45l-7-6.23-27.67-32"/><path class="cls-2" d="M200.17,230.92c-7.21,0-14.45-6.38-14.55-6.46l-7-6.23-27.73-32.11a.67.67,0,1,1,1-.87l27.66,32,6.93,6.17c.13.11,12.5,11,20.13,3.47l.82-.75a9.12,9.12,0,0,0,.51-12.86l-19.78-22.61a.67.67,0,0,1,.07-.94.66.66,0,0,1,.94.06L209,212.43a10.44,10.44,0,0,1-.6,14.73l-.8.74a10.2,10.2,0,0,1-7.39,3"/><path class="cls-1" d="M193.23,194.69l17.07,18.06a9.8,9.8,0,0,0,13.81.39l.78-.75a9.78,9.78,0,0,0,.39-13.8l-8.54-9L202,174"/><path class="cls-2" d="M217.4,216.47a10.39,10.39,0,0,1-7.58-3.26l-17.07-18.06a.66.66,0,0,1,1-.92l17.08,18.06a9.11,9.11,0,0,0,12.86.37l.78-.75a9.11,9.11,0,0,0,.37-12.86l-23.25-24.6a.66.66,0,0,1,0-.94.68.68,0,0,1,1,0l23.25,24.6a10.44,10.44,0,0,1-.42,14.74l-.78.74a10.4,10.4,0,0,1-7.17,2.85"/><path class="cls-2" d="M98.1,137.73S116.3,160,98.27,183c-14.58,18.58-38.42,5.74-38.42,5.74l11.29-31.3Z"/><path class="cls-2" d="M205.24,151.65s-21.11,1.66-24.94,20.75c-3.53,17.65,11.4,25.36,11.4,25.36"/><path class="cls-2" d="M190,192.1a.67.67,0,0,1-.45-1.15c.06-.06,6.47-6.2,12.6-22s4.9-28.27,4.89-28.39a.67.67,0,0,1,1.33-.15c0,.13,1.29,12.86-5,29s-12.66,22.27-12.93,22.52a.67.67,0,0,1-.46.18"/><polygon class="cls-1" points="227.62 249.06 279.52 214.46 279.54 157.13 227.63 189.2 227.62 249.06"/><path class="cls-2" d="M227.62,249.73a.61.61,0,0,1-.32-.08.67.67,0,0,1-.35-.59V189.2a.67.67,0,0,1,.32-.57l51.91-32.06a.65.65,0,0,1,.67,0,.67.67,0,0,1,.34.58v57.33a.67.67,0,0,1-.3.56L228,249.62a.7.7,0,0,1-.37.11m.68-60.16,0,58.25,50.58-33.71V158.33Z"/><path class="cls-3" d="M148.25,72.45c0,13-11.47,23.58-25.61,23.57S97.05,85.46,97.05,72.44s11.47-23.58,25.6-23.58,25.6,10.56,25.6,23.59"/><path class="cls-3" d="M223.76,72.47c0,13-11.47,23.58-25.61,23.57s-25.59-10.56-25.59-23.59S184,48.87,198.16,48.88s25.6,10.56,25.6,23.59"/><path class="cls-2" d="M240.86,78.53c-.13-10-8.2-24.34-12.23-30.92l-1.22-44.4a3.3,3.3,0,0,0-5.57-2.3L204.69,17.35C189.9,27,176.93,27.43,162.45,27.62h0l-20.32.26A70.48,70.48,0,0,1,113.17,11.3l-9.36-8.84a3.29,3.29,0,0,0-5.56,2.3L97.06,48.85c-3.63,6.44-11.45,21.44-11.8,31.57-.7,20,5.42,33.33,5.68,33.88a1.65,1.65,0,0,0,1.26.94,59.15,59.15,0,0,0,7.44.45c11.25,0,32.89-2.37,48.6-19.65,8.4-9.24,12.67-22.78,14.72-31.93,2.27,9.09,6.87,22.52,15.48,31.54A55.88,55.88,0,0,0,187,103a24,24,0,0,1,4.17,9.6,3.21,3.21,0,0,0,.13,2.09,10.21,10.21,0,0,1-2.56,6.64,18.78,18.78,0,0,1-4.71,2.32c-7.29,2.52-14.16-1.45-16.82-3.32l-.12-9.7a8.39,8.39,0,0,0,5.15-7.84c-.06-4.63-3.8-3.27-8.43-3.22s-8.4-1.2-8.35,3.43a8.39,8.39,0,0,0,5,7.54l.12,9.81c-2.83,2-10.08,6.21-17.56,3.82-3.38-1.08-5.48-2.61-6.25-4.53-1-2.54.46-5.35.52-5.46a3.3,3.3,0,0,0-5.74-3.24c-.32.56-3.06,5.62-.94,11,1.51,3.89,5,6.74,10.41,8.46a22.07,22.07,0,0,0,6.52,1c7.16,0,13.27-3.33,16.38-5.43l.13.08c.51,4.67,2.44,12.1,9.26,16.47,12.89,8.26,32.36-.48,36.62-16.1,1.49-5.48,1.51-10,.53-13.79a75.76,75.76,0,0,0,14.35,1.43,64.65,64.65,0,0,0,10-.66c4.24-.37,6.41-12.74,6.13-34.92m-115.3,9a16.58,16.58,0,1,1,16.37-16.79,16.58,16.58,0,0,1-16.37,16.79m75.51-1a16.58,16.58,0,1,1,16.36-16.79,16.58,16.58,0,0,1-16.36,16.79"/><path class="cls-2" d="M125.61,58.43c-1.8,0-3.27,5.48-3.31,12.27S123.7,83,125.49,83s3.28-5.48,3.31-12.27-1.4-12.29-3.19-12.3"/><path class="cls-2" d="M200.91,58.78c-1.79,0-3.27,5.49-3.31,12.27s1.4,12.29,3.19,12.3,3.28-5.48,3.31-12.26-1.4-12.29-3.19-12.31"/><path class="cls-2" d="M141,142.78h0c-32.54,0-52.75-20.22-52.74-52.76a.59.59,0,0,1,1.17,0c0,31.82,19.75,51.59,51.57,51.6a.59.59,0,0,1,.59.58.6.6,0,0,1-.59.58"/><path class="cls-2" d="M185.51,142.8a.59.59,0,0,1-.6-.59.58.58,0,0,1,.58-.58h0c31.81,0,51.57-19.76,51.58-51.58a.58.58,0,0,1,.58-.58.59.59,0,0,1,.59.59c0,32.53-20.23,52.74-52.75,52.74"/></g></g></svg>